<mxfile host="app.diagrams.net" modified="2024-07-09T20:41:51.418Z" agent="Mozilla/5.0 (Windows NT 10.0; Win64; x64) AppleWebKit/537.36 (KHTML, like Gecko) Chrome/126.0.0.0 Safari/537.36" etag="kiMtGT4sVRVG6L_NwEn5" version="24.6.4" type="device" pages="3">
  <diagram id="C5RBs43oDa-KdzZeNtuy" name="Class Diagram">
    <mxGraphModel dx="1434" dy="790" grid="1" gridSize="10" guides="1" tooltips="1" connect="1" arrows="1" fold="1" page="1" pageScale="1" pageWidth="827" pageHeight="1169" math="0" shadow="0">
      <root>
        <mxCell id="WIyWlLk6GJQsqaUBKTNV-0" />
        <mxCell id="WIyWlLk6GJQsqaUBKTNV-1" parent="WIyWlLk6GJQsqaUBKTNV-0" />
        <mxCell id="TmE3GB6h4GngqeuF9rza-11" value="ShakespeareMonkey" style="swimlane;fontStyle=1;align=center;verticalAlign=top;childLayout=stackLayout;horizontal=1;startSize=26;horizontalStack=0;resizeParent=1;resizeParentMax=0;resizeLast=0;collapsible=1;marginBottom=0;whiteSpace=wrap;html=1;dashed=1;dashPattern=8 8;" parent="WIyWlLk6GJQsqaUBKTNV-1" vertex="1">
          <mxGeometry x="119" y="120" width="160" height="60" as="geometry" />
        </mxCell>
        <mxCell id="TmE3GB6h4GngqeuF9rza-12" value="+ DNA: Object" style="text;strokeColor=none;fillColor=none;align=left;verticalAlign=top;spacingLeft=4;spacingRight=4;overflow=hidden;rotatable=0;points=[[0,0.5],[1,0.5]];portConstraint=eastwest;whiteSpace=wrap;html=1;" parent="TmE3GB6h4GngqeuF9rza-11" vertex="1">
          <mxGeometry y="26" width="160" height="26" as="geometry" />
        </mxCell>
        <mxCell id="TmE3GB6h4GngqeuF9rza-13" value="" style="line;strokeWidth=1;fillColor=none;align=left;verticalAlign=middle;spacingTop=-1;spacingLeft=3;spacingRight=3;rotatable=0;labelPosition=right;points=[];portConstraint=eastwest;strokeColor=inherit;" parent="TmE3GB6h4GngqeuF9rza-11" vertex="1">
          <mxGeometry y="52" width="160" height="8" as="geometry" />
        </mxCell>
        <mxCell id="TmE3GB6h4GngqeuF9rza-38" style="edgeStyle=orthogonalEdgeStyle;rounded=0;orthogonalLoop=1;jettySize=auto;html=1;exitX=1;exitY=0.5;exitDx=0;exitDy=0;entryX=0;entryY=0.5;entryDx=0;entryDy=0;dashed=1;dashPattern=8 8;endArrow=none;endFill=0;" parent="WIyWlLk6GJQsqaUBKTNV-1" source="TmE3GB6h4GngqeuF9rza-15" target="TmE3GB6h4GngqeuF9rza-34" edge="1">
          <mxGeometry relative="1" as="geometry" />
        </mxCell>
        <mxCell id="TmE3GB6h4GngqeuF9rza-15" value="Population" style="html=1;whiteSpace=wrap;dashed=1;dashPattern=8 8;" parent="WIyWlLk6GJQsqaUBKTNV-1" vertex="1">
          <mxGeometry x="389" y="160" width="110" height="50" as="geometry" />
        </mxCell>
        <mxCell id="TmE3GB6h4GngqeuF9rza-17" style="edgeStyle=orthogonalEdgeStyle;rounded=0;orthogonalLoop=1;jettySize=auto;html=1;exitX=0.5;exitY=0;exitDx=0;exitDy=0;entryX=0.5;entryY=1;entryDx=0;entryDy=0;endArrow=diamond;endFill=1;endSize=10;" parent="WIyWlLk6GJQsqaUBKTNV-1" source="TmE3GB6h4GngqeuF9rza-16" target="TmE3GB6h4GngqeuF9rza-15" edge="1">
          <mxGeometry relative="1" as="geometry" />
        </mxCell>
        <mxCell id="TmE3GB6h4GngqeuF9rza-35" style="edgeStyle=orthogonalEdgeStyle;rounded=0;orthogonalLoop=1;jettySize=auto;html=1;exitX=1;exitY=0.5;exitDx=0;exitDy=0;entryX=0.5;entryY=1;entryDx=0;entryDy=0;endArrow=diamond;endFill=1;endSize=10;" parent="WIyWlLk6GJQsqaUBKTNV-1" source="TmE3GB6h4GngqeuF9rza-16" target="TmE3GB6h4GngqeuF9rza-34" edge="1">
          <mxGeometry relative="1" as="geometry" />
        </mxCell>
        <mxCell id="TmE3GB6h4GngqeuF9rza-16" value="ShakespeareMonkey" style="html=1;whiteSpace=wrap;dashed=1;dashPattern=8 8;" parent="WIyWlLk6GJQsqaUBKTNV-1" vertex="1">
          <mxGeometry x="379" y="300" width="130" height="50" as="geometry" />
        </mxCell>
        <mxCell id="TmE3GB6h4GngqeuF9rza-18" value="2..*" style="text;html=1;align=center;verticalAlign=middle;resizable=0;points=[];autosize=1;strokeColor=none;fillColor=none;" parent="WIyWlLk6GJQsqaUBKTNV-1" vertex="1">
          <mxGeometry x="442" y="270" width="40" height="30" as="geometry" />
        </mxCell>
        <mxCell id="TmE3GB6h4GngqeuF9rza-19" value="1" style="text;html=1;align=center;verticalAlign=middle;resizable=0;points=[];autosize=1;strokeColor=none;fillColor=none;" parent="WIyWlLk6GJQsqaUBKTNV-1" vertex="1">
          <mxGeometry x="447" y="210" width="30" height="30" as="geometry" />
        </mxCell>
        <mxCell id="TmE3GB6h4GngqeuF9rza-20" style="edgeStyle=orthogonalEdgeStyle;rounded=0;orthogonalLoop=1;jettySize=auto;html=1;exitX=0.5;exitY=0;exitDx=0;exitDy=0;entryX=0.5;entryY=1;entryDx=0;entryDy=0;endArrow=diamond;endFill=1;endSize=10;" parent="WIyWlLk6GJQsqaUBKTNV-1" source="TmE3GB6h4GngqeuF9rza-21" edge="1">
          <mxGeometry relative="1" as="geometry">
            <mxPoint x="444" y="350" as="targetPoint" />
          </mxGeometry>
        </mxCell>
        <mxCell id="TmE3GB6h4GngqeuF9rza-21" value="DNA" style="html=1;whiteSpace=wrap;" parent="WIyWlLk6GJQsqaUBKTNV-1" vertex="1">
          <mxGeometry x="379" y="440" width="130" height="50" as="geometry" />
        </mxCell>
        <mxCell id="TmE3GB6h4GngqeuF9rza-22" value="1" style="text;html=1;align=center;verticalAlign=middle;resizable=0;points=[];autosize=1;strokeColor=none;fillColor=none;" parent="WIyWlLk6GJQsqaUBKTNV-1" vertex="1">
          <mxGeometry x="447" y="410" width="30" height="30" as="geometry" />
        </mxCell>
        <mxCell id="TmE3GB6h4GngqeuF9rza-23" value="1" style="text;html=1;align=center;verticalAlign=middle;resizable=0;points=[];autosize=1;strokeColor=none;fillColor=none;" parent="WIyWlLk6GJQsqaUBKTNV-1" vertex="1">
          <mxGeometry x="447" y="350" width="30" height="30" as="geometry" />
        </mxCell>
        <mxCell id="TmE3GB6h4GngqeuF9rza-30" value="ShakespeareMonkey" style="swimlane;whiteSpace=wrap;html=1;dashed=1;dashPattern=8 8;" parent="WIyWlLk6GJQsqaUBKTNV-1" vertex="1">
          <mxGeometry x="99" y="255" width="230" height="285" as="geometry" />
        </mxCell>
        <mxCell id="TmE3GB6h4GngqeuF9rza-24" value="DNA" style="swimlane;fontStyle=1;align=center;verticalAlign=top;childLayout=stackLayout;horizontal=1;startSize=26;horizontalStack=0;resizeParent=1;resizeParentMax=0;resizeLast=0;collapsible=1;marginBottom=0;whiteSpace=wrap;html=1;" parent="TmE3GB6h4GngqeuF9rza-30" vertex="1">
          <mxGeometry x="20" y="45" width="190" height="216" as="geometry" />
        </mxCell>
        <mxCell id="TmE3GB6h4GngqeuF9rza-25" value="+ genes: Array" style="text;strokeColor=none;fillColor=none;align=left;verticalAlign=top;spacingLeft=4;spacingRight=4;overflow=hidden;rotatable=0;points=[[0,0.5],[1,0.5]];portConstraint=eastwest;whiteSpace=wrap;html=1;" parent="TmE3GB6h4GngqeuF9rza-24" vertex="1">
          <mxGeometry y="26" width="190" height="26" as="geometry" />
        </mxCell>
        <mxCell id="TmE3GB6h4GngqeuF9rza-28" value="+ fitness: int" style="text;strokeColor=none;fillColor=none;align=left;verticalAlign=top;spacingLeft=4;spacingRight=4;overflow=hidden;rotatable=0;points=[[0,0.5],[1,0.5]];portConstraint=eastwest;whiteSpace=wrap;html=1;" parent="TmE3GB6h4GngqeuF9rza-24" vertex="1">
          <mxGeometry y="52" width="190" height="26" as="geometry" />
        </mxCell>
        <mxCell id="TmE3GB6h4GngqeuF9rza-26" value="" style="line;strokeWidth=1;fillColor=none;align=left;verticalAlign=middle;spacingTop=-1;spacingLeft=3;spacingRight=3;rotatable=0;labelPosition=right;points=[];portConstraint=eastwest;strokeColor=inherit;" parent="TmE3GB6h4GngqeuF9rza-24" vertex="1">
          <mxGeometry y="78" width="190" height="8" as="geometry" />
        </mxCell>
        <mxCell id="TmE3GB6h4GngqeuF9rza-27" value="+ constructor(int): void" style="text;strokeColor=none;fillColor=none;align=left;verticalAlign=top;spacingLeft=4;spacingRight=4;overflow=hidden;rotatable=0;points=[[0,0.5],[1,0.5]];portConstraint=eastwest;whiteSpace=wrap;html=1;" parent="TmE3GB6h4GngqeuF9rza-24" vertex="1">
          <mxGeometry y="86" width="190" height="26" as="geometry" />
        </mxCell>
        <mxCell id="TmE3GB6h4GngqeuF9rza-33" value="+ getPhrase: String" style="text;strokeColor=none;fillColor=none;align=left;verticalAlign=top;spacingLeft=4;spacingRight=4;overflow=hidden;rotatable=0;points=[[0,0.5],[1,0.5]];portConstraint=eastwest;whiteSpace=wrap;html=1;" parent="TmE3GB6h4GngqeuF9rza-24" vertex="1">
          <mxGeometry y="112" width="190" height="26" as="geometry" />
        </mxCell>
        <mxCell id="TmE3GB6h4GngqeuF9rza-29" value="+ calculateFitness(String): void" style="text;strokeColor=none;fillColor=none;align=left;verticalAlign=top;spacingLeft=4;spacingRight=4;overflow=hidden;rotatable=0;points=[[0,0.5],[1,0.5]];portConstraint=eastwest;whiteSpace=wrap;html=1;" parent="TmE3GB6h4GngqeuF9rza-24" vertex="1">
          <mxGeometry y="138" width="190" height="26" as="geometry" />
        </mxCell>
        <mxCell id="TmE3GB6h4GngqeuF9rza-32" value="+ crossover(DNA): DNA" style="text;strokeColor=none;fillColor=none;align=left;verticalAlign=top;spacingLeft=4;spacingRight=4;overflow=hidden;rotatable=0;points=[[0,0.5],[1,0.5]];portConstraint=eastwest;whiteSpace=wrap;html=1;" parent="TmE3GB6h4GngqeuF9rza-24" vertex="1">
          <mxGeometry y="164" width="190" height="26" as="geometry" />
        </mxCell>
        <mxCell id="TmE3GB6h4GngqeuF9rza-31" value="+ mutate(float): void" style="text;strokeColor=none;fillColor=none;align=left;verticalAlign=top;spacingLeft=4;spacingRight=4;overflow=hidden;rotatable=0;points=[[0,0.5],[1,0.5]];portConstraint=eastwest;whiteSpace=wrap;html=1;" parent="TmE3GB6h4GngqeuF9rza-24" vertex="1">
          <mxGeometry y="190" width="190" height="26" as="geometry" />
        </mxCell>
        <mxCell id="TmE3GB6h4GngqeuF9rza-34" value="matingPool" style="html=1;whiteSpace=wrap;" parent="WIyWlLk6GJQsqaUBKTNV-1" vertex="1">
          <mxGeometry x="619" y="160" width="110" height="50" as="geometry" />
        </mxCell>
        <mxCell id="TmE3GB6h4GngqeuF9rza-36" value="*" style="text;html=1;align=center;verticalAlign=middle;resizable=0;points=[];autosize=1;strokeColor=none;fillColor=none;" parent="WIyWlLk6GJQsqaUBKTNV-1" vertex="1">
          <mxGeometry x="509" y="295" width="30" height="30" as="geometry" />
        </mxCell>
        <mxCell id="TmE3GB6h4GngqeuF9rza-37" value="1" style="text;html=1;align=center;verticalAlign=middle;resizable=0;points=[];autosize=1;strokeColor=none;fillColor=none;" parent="WIyWlLk6GJQsqaUBKTNV-1" vertex="1">
          <mxGeometry x="679" y="210" width="30" height="30" as="geometry" />
        </mxCell>
        <mxCell id="TmE3GB6h4GngqeuF9rza-39" value="related, because &lt;br&gt;the same object comprises them.&lt;br&gt;&lt;br&gt;&lt;div&gt;But the size of the mating pool is bigger than the population, due to the selection and reproduction steps implementation.&lt;/div&gt;" style="shape=note;whiteSpace=wrap;html=1;backgroundOutline=1;darkOpacity=0.05;" parent="WIyWlLk6GJQsqaUBKTNV-1" vertex="1">
          <mxGeometry x="439" y="40" width="250" height="100" as="geometry" />
        </mxCell>
        <mxCell id="Iiu2SEGJSg8Paed58x13-0" value="OLD MODEL" style="text;html=1;align=center;verticalAlign=middle;whiteSpace=wrap;rounded=0;strokeColor=default;strokeWidth=2;" parent="WIyWlLk6GJQsqaUBKTNV-1" vertex="1">
          <mxGeometry x="39" y="40" width="60" height="30" as="geometry" />
        </mxCell>
        <mxCell id="Iiu2SEGJSg8Paed58x13-1" value="NEW MODEL" style="text;html=1;align=center;verticalAlign=middle;whiteSpace=wrap;rounded=0;strokeColor=default;strokeWidth=2;" parent="WIyWlLk6GJQsqaUBKTNV-1" vertex="1">
          <mxGeometry x="39" y="600" width="60" height="30" as="geometry" />
        </mxCell>
        <mxCell id="Iiu2SEGJSg8Paed58x13-2" value="" style="endArrow=none;dashed=1;html=1;dashPattern=1 3;strokeWidth=4;rounded=0;" parent="WIyWlLk6GJQsqaUBKTNV-1" edge="1">
          <mxGeometry width="50" height="50" relative="1" as="geometry">
            <mxPoint x="10" y="560" as="sourcePoint" />
            <mxPoint x="820" y="560" as="targetPoint" />
          </mxGeometry>
        </mxCell>
        <mxCell id="Iiu2SEGJSg8Paed58x13-3" value="ShakespeareMonkey" style="swimlane;fontStyle=1;align=center;verticalAlign=top;childLayout=stackLayout;horizontal=1;startSize=26;horizontalStack=0;resizeParent=1;resizeParentMax=0;resizeLast=0;collapsible=1;marginBottom=0;whiteSpace=wrap;html=1;dashed=1;dashPattern=8 8;" parent="WIyWlLk6GJQsqaUBKTNV-1" vertex="1">
          <mxGeometry x="84" y="640" width="160" height="60" as="geometry" />
        </mxCell>
        <mxCell id="Iiu2SEGJSg8Paed58x13-4" value="+ DNA: Object" style="text;strokeColor=none;fillColor=none;align=left;verticalAlign=top;spacingLeft=4;spacingRight=4;overflow=hidden;rotatable=0;points=[[0,0.5],[1,0.5]];portConstraint=eastwest;whiteSpace=wrap;html=1;" parent="Iiu2SEGJSg8Paed58x13-3" vertex="1">
          <mxGeometry y="26" width="160" height="26" as="geometry" />
        </mxCell>
        <mxCell id="Iiu2SEGJSg8Paed58x13-5" value="" style="line;strokeWidth=1;fillColor=none;align=left;verticalAlign=middle;spacingTop=-1;spacingLeft=3;spacingRight=3;rotatable=0;labelPosition=right;points=[];portConstraint=eastwest;strokeColor=inherit;" parent="Iiu2SEGJSg8Paed58x13-3" vertex="1">
          <mxGeometry y="52" width="160" height="8" as="geometry" />
        </mxCell>
        <mxCell id="Iiu2SEGJSg8Paed58x13-7" value="Population" style="html=1;whiteSpace=wrap;" parent="WIyWlLk6GJQsqaUBKTNV-1" vertex="1">
          <mxGeometry x="677" y="695" width="110" height="50" as="geometry" />
        </mxCell>
        <mxCell id="Iiu2SEGJSg8Paed58x13-8" style="edgeStyle=orthogonalEdgeStyle;rounded=0;orthogonalLoop=1;jettySize=auto;html=1;exitX=0.5;exitY=0;exitDx=0;exitDy=0;entryX=0.5;entryY=1;entryDx=0;entryDy=0;endArrow=diamond;endFill=1;endSize=10;" parent="WIyWlLk6GJQsqaUBKTNV-1" source="Iiu2SEGJSg8Paed58x13-10" target="Iiu2SEGJSg8Paed58x13-7" edge="1">
          <mxGeometry relative="1" as="geometry" />
        </mxCell>
        <mxCell id="Iiu2SEGJSg8Paed58x13-10" value="ShakespeareMonkey" style="html=1;whiteSpace=wrap;dashed=1;dashPattern=8 8;" parent="WIyWlLk6GJQsqaUBKTNV-1" vertex="1">
          <mxGeometry x="667" y="835" width="130" height="50" as="geometry" />
        </mxCell>
        <mxCell id="Iiu2SEGJSg8Paed58x13-11" value="2..*" style="text;html=1;align=center;verticalAlign=middle;resizable=0;points=[];autosize=1;strokeColor=none;fillColor=none;" parent="WIyWlLk6GJQsqaUBKTNV-1" vertex="1">
          <mxGeometry x="730" y="805" width="40" height="30" as="geometry" />
        </mxCell>
        <mxCell id="Iiu2SEGJSg8Paed58x13-12" value="N" style="text;html=1;align=center;verticalAlign=middle;resizable=0;points=[];autosize=1;strokeColor=none;fillColor=none;" parent="WIyWlLk6GJQsqaUBKTNV-1" vertex="1">
          <mxGeometry x="735" y="745" width="30" height="30" as="geometry" />
        </mxCell>
        <mxCell id="Iiu2SEGJSg8Paed58x13-13" style="edgeStyle=orthogonalEdgeStyle;rounded=0;orthogonalLoop=1;jettySize=auto;html=1;exitX=0.5;exitY=0;exitDx=0;exitDy=0;entryX=0.5;entryY=1;entryDx=0;entryDy=0;endArrow=diamond;endFill=1;endSize=10;" parent="WIyWlLk6GJQsqaUBKTNV-1" source="Iiu2SEGJSg8Paed58x13-14" edge="1">
          <mxGeometry relative="1" as="geometry">
            <mxPoint x="732" y="885" as="targetPoint" />
          </mxGeometry>
        </mxCell>
        <mxCell id="Iiu2SEGJSg8Paed58x13-14" value="DNA" style="html=1;whiteSpace=wrap;" parent="WIyWlLk6GJQsqaUBKTNV-1" vertex="1">
          <mxGeometry x="667" y="975" width="130" height="50" as="geometry" />
        </mxCell>
        <mxCell id="Iiu2SEGJSg8Paed58x13-15" value="1" style="text;html=1;align=center;verticalAlign=middle;resizable=0;points=[];autosize=1;strokeColor=none;fillColor=none;" parent="WIyWlLk6GJQsqaUBKTNV-1" vertex="1">
          <mxGeometry x="735" y="945" width="30" height="30" as="geometry" />
        </mxCell>
        <mxCell id="Iiu2SEGJSg8Paed58x13-16" value="1" style="text;html=1;align=center;verticalAlign=middle;resizable=0;points=[];autosize=1;strokeColor=none;fillColor=none;" parent="WIyWlLk6GJQsqaUBKTNV-1" vertex="1">
          <mxGeometry x="735" y="885" width="30" height="30" as="geometry" />
        </mxCell>
        <mxCell id="Iiu2SEGJSg8Paed58x13-17" value="ShakespeareMonkey" style="swimlane;whiteSpace=wrap;html=1;dashed=1;dashPattern=8 8;" parent="WIyWlLk6GJQsqaUBKTNV-1" vertex="1">
          <mxGeometry x="49" y="722.5" width="230" height="285" as="geometry" />
        </mxCell>
        <mxCell id="Iiu2SEGJSg8Paed58x13-18" value="DNA" style="swimlane;fontStyle=1;align=center;verticalAlign=top;childLayout=stackLayout;horizontal=1;startSize=26;horizontalStack=0;resizeParent=1;resizeParentMax=0;resizeLast=0;collapsible=1;marginBottom=0;whiteSpace=wrap;html=1;" parent="Iiu2SEGJSg8Paed58x13-17" vertex="1">
          <mxGeometry x="20" y="45" width="190" height="216" as="geometry" />
        </mxCell>
        <mxCell id="Iiu2SEGJSg8Paed58x13-19" value="+ genes: Array" style="text;strokeColor=none;fillColor=none;align=left;verticalAlign=top;spacingLeft=4;spacingRight=4;overflow=hidden;rotatable=0;points=[[0,0.5],[1,0.5]];portConstraint=eastwest;whiteSpace=wrap;html=1;" parent="Iiu2SEGJSg8Paed58x13-18" vertex="1">
          <mxGeometry y="26" width="190" height="26" as="geometry" />
        </mxCell>
        <mxCell id="Iiu2SEGJSg8Paed58x13-20" value="+ fitness: int" style="text;strokeColor=none;fillColor=none;align=left;verticalAlign=top;spacingLeft=4;spacingRight=4;overflow=hidden;rotatable=0;points=[[0,0.5],[1,0.5]];portConstraint=eastwest;whiteSpace=wrap;html=1;" parent="Iiu2SEGJSg8Paed58x13-18" vertex="1">
          <mxGeometry y="52" width="190" height="26" as="geometry" />
        </mxCell>
        <mxCell id="Iiu2SEGJSg8Paed58x13-21" value="" style="line;strokeWidth=1;fillColor=none;align=left;verticalAlign=middle;spacingTop=-1;spacingLeft=3;spacingRight=3;rotatable=0;labelPosition=right;points=[];portConstraint=eastwest;strokeColor=inherit;" parent="Iiu2SEGJSg8Paed58x13-18" vertex="1">
          <mxGeometry y="78" width="190" height="8" as="geometry" />
        </mxCell>
        <mxCell id="Iiu2SEGJSg8Paed58x13-22" value="+ constructor(int): void" style="text;strokeColor=none;fillColor=none;align=left;verticalAlign=top;spacingLeft=4;spacingRight=4;overflow=hidden;rotatable=0;points=[[0,0.5],[1,0.5]];portConstraint=eastwest;whiteSpace=wrap;html=1;" parent="Iiu2SEGJSg8Paed58x13-18" vertex="1">
          <mxGeometry y="86" width="190" height="26" as="geometry" />
        </mxCell>
        <mxCell id="Iiu2SEGJSg8Paed58x13-23" value="+ getPhrase: String" style="text;strokeColor=none;fillColor=none;align=left;verticalAlign=top;spacingLeft=4;spacingRight=4;overflow=hidden;rotatable=0;points=[[0,0.5],[1,0.5]];portConstraint=eastwest;whiteSpace=wrap;html=1;" parent="Iiu2SEGJSg8Paed58x13-18" vertex="1">
          <mxGeometry y="112" width="190" height="26" as="geometry" />
        </mxCell>
        <mxCell id="Iiu2SEGJSg8Paed58x13-24" value="+ calculateFitness(String): void" style="text;strokeColor=none;fillColor=none;align=left;verticalAlign=top;spacingLeft=4;spacingRight=4;overflow=hidden;rotatable=0;points=[[0,0.5],[1,0.5]];portConstraint=eastwest;whiteSpace=wrap;html=1;" parent="Iiu2SEGJSg8Paed58x13-18" vertex="1">
          <mxGeometry y="138" width="190" height="26" as="geometry" />
        </mxCell>
        <mxCell id="Iiu2SEGJSg8Paed58x13-25" value="+ crossover(DNA): DNA" style="text;strokeColor=none;fillColor=none;align=left;verticalAlign=top;spacingLeft=4;spacingRight=4;overflow=hidden;rotatable=0;points=[[0,0.5],[1,0.5]];portConstraint=eastwest;whiteSpace=wrap;html=1;" parent="Iiu2SEGJSg8Paed58x13-18" vertex="1">
          <mxGeometry y="164" width="190" height="26" as="geometry" />
        </mxCell>
        <mxCell id="Iiu2SEGJSg8Paed58x13-26" value="+ mutate(float): void" style="text;strokeColor=none;fillColor=none;align=left;verticalAlign=top;spacingLeft=4;spacingRight=4;overflow=hidden;rotatable=0;points=[[0,0.5],[1,0.5]];portConstraint=eastwest;whiteSpace=wrap;html=1;" parent="Iiu2SEGJSg8Paed58x13-18" vertex="1">
          <mxGeometry y="190" width="190" height="26" as="geometry" />
        </mxCell>
        <mxCell id="Iiu2SEGJSg8Paed58x13-30" value="matingPool&lt;br&gt;is integrated&lt;br&gt;in population." style="shape=note;whiteSpace=wrap;html=1;backgroundOutline=1;darkOpacity=0.05;" parent="WIyWlLk6GJQsqaUBKTNV-1" vertex="1">
          <mxGeometry x="667" y="570" width="131" height="100" as="geometry" />
        </mxCell>
        <mxCell id="Iiu2SEGJSg8Paed58x13-32" value="population" style="swimlane;fontStyle=1;align=center;verticalAlign=top;childLayout=stackLayout;horizontal=1;startSize=26;horizontalStack=0;resizeParent=1;resizeParentMax=0;resizeLast=0;collapsible=1;marginBottom=0;whiteSpace=wrap;html=1;" parent="WIyWlLk6GJQsqaUBKTNV-1" vertex="1">
          <mxGeometry x="329" y="570" width="303" height="554" as="geometry" />
        </mxCell>
        <mxCell id="Iiu2SEGJSg8Paed58x13-33" value="+ maxScore: int OR float" style="text;strokeColor=none;fillColor=none;align=left;verticalAlign=top;spacingLeft=4;spacingRight=4;overflow=hidden;rotatable=0;points=[[0,0.5],[1,0.5]];portConstraint=eastwest;whiteSpace=wrap;html=1;" parent="Iiu2SEGJSg8Paed58x13-32" vertex="1">
          <mxGeometry y="26" width="303" height="26" as="geometry" />
        </mxCell>
        <mxCell id="Iiu2SEGJSg8Paed58x13-34" value="+ target: String" style="text;strokeColor=none;fillColor=none;align=left;verticalAlign=top;spacingLeft=4;spacingRight=4;overflow=hidden;rotatable=0;points=[[0,0.5],[1,0.5]];portConstraint=eastwest;whiteSpace=wrap;html=1;" parent="Iiu2SEGJSg8Paed58x13-32" vertex="1">
          <mxGeometry y="52" width="303" height="26" as="geometry" />
        </mxCell>
        <mxCell id="Iiu2SEGJSg8Paed58x13-42" value="+ population: Array" style="text;strokeColor=none;fillColor=none;align=left;verticalAlign=top;spacingLeft=4;spacingRight=4;overflow=hidden;rotatable=0;points=[[0,0.5],[1,0.5]];portConstraint=eastwest;whiteSpace=wrap;html=1;" parent="Iiu2SEGJSg8Paed58x13-32" vertex="1">
          <mxGeometry y="78" width="303" height="26" as="geometry" />
        </mxCell>
        <mxCell id="Iiu2SEGJSg8Paed58x13-43" value="+ generation: int" style="text;strokeColor=none;fillColor=none;align=left;verticalAlign=top;spacingLeft=4;spacingRight=4;overflow=hidden;rotatable=0;points=[[0,0.5],[1,0.5]];portConstraint=eastwest;whiteSpace=wrap;html=1;" parent="Iiu2SEGJSg8Paed58x13-32" vertex="1">
          <mxGeometry y="104" width="303" height="26" as="geometry" />
        </mxCell>
        <mxCell id="Iiu2SEGJSg8Paed58x13-45" value="+ bestFitness: float" style="text;strokeColor=none;fillColor=none;align=left;verticalAlign=top;spacingLeft=4;spacingRight=4;overflow=hidden;rotatable=0;points=[[0,0.5],[1,0.5]];portConstraint=eastwest;whiteSpace=wrap;html=1;" parent="Iiu2SEGJSg8Paed58x13-32" vertex="1">
          <mxGeometry y="130" width="303" height="26" as="geometry" />
        </mxCell>
        <mxCell id="Iiu2SEGJSg8Paed58x13-46" value="+ bestPhrase: String" style="text;strokeColor=none;fillColor=none;align=left;verticalAlign=top;spacingLeft=4;spacingRight=4;overflow=hidden;rotatable=0;points=[[0,0.5],[1,0.5]];portConstraint=eastwest;whiteSpace=wrap;html=1;" parent="Iiu2SEGJSg8Paed58x13-32" vertex="1">
          <mxGeometry y="156" width="303" height="26" as="geometry" />
        </mxCell>
        <mxCell id="Iiu2SEGJSg8Paed58x13-44" value="+ matingPool: Array" style="text;strokeColor=none;fillColor=none;align=left;verticalAlign=top;spacingLeft=4;spacingRight=4;overflow=hidden;rotatable=0;points=[[0,0.5],[1,0.5]];portConstraint=eastwest;whiteSpace=wrap;html=1;" parent="Iiu2SEGJSg8Paed58x13-32" vertex="1">
          <mxGeometry y="182" width="303" height="26" as="geometry" />
        </mxCell>
        <mxCell id="Iiu2SEGJSg8Paed58x13-41" value="+ mutationRate: float" style="text;strokeColor=none;fillColor=none;align=left;verticalAlign=top;spacingLeft=4;spacingRight=4;overflow=hidden;rotatable=0;points=[[0,0.5],[1,0.5]];portConstraint=eastwest;whiteSpace=wrap;html=1;" parent="Iiu2SEGJSg8Paed58x13-32" vertex="1">
          <mxGeometry y="208" width="303" height="26" as="geometry" />
        </mxCell>
        <mxCell id="Iiu2SEGJSg8Paed58x13-47" value="+ finished: bool" style="text;strokeColor=none;fillColor=none;align=left;verticalAlign=top;spacingLeft=4;spacingRight=4;overflow=hidden;rotatable=0;points=[[0,0.5],[1,0.5]];portConstraint=eastwest;whiteSpace=wrap;html=1;" parent="Iiu2SEGJSg8Paed58x13-32" vertex="1">
          <mxGeometry y="234" width="303" height="26" as="geometry" />
        </mxCell>
        <mxCell id="Iiu2SEGJSg8Paed58x13-35" value="" style="line;strokeWidth=1;fillColor=none;align=left;verticalAlign=middle;spacingTop=-1;spacingLeft=3;spacingRight=3;rotatable=0;labelPosition=right;points=[];portConstraint=eastwest;strokeColor=inherit;" parent="Iiu2SEGJSg8Paed58x13-32" vertex="1">
          <mxGeometry y="260" width="303" height="8" as="geometry" />
        </mxCell>
        <mxCell id="Iiu2SEGJSg8Paed58x13-36" value="+ calculateFitness(): void" style="text;strokeColor=none;fillColor=none;align=left;verticalAlign=top;spacingLeft=4;spacingRight=4;overflow=hidden;rotatable=0;points=[[0,0.5],[1,0.5]];portConstraint=eastwest;whiteSpace=wrap;html=1;" parent="Iiu2SEGJSg8Paed58x13-32" vertex="1">
          <mxGeometry y="268" width="303" height="26" as="geometry" />
        </mxCell>
        <mxCell id="Iiu2SEGJSg8Paed58x13-48" value="+ generateMatingPool(): void" style="text;strokeColor=none;fillColor=none;align=left;verticalAlign=top;spacingLeft=4;spacingRight=4;overflow=hidden;rotatable=0;points=[[0,0.5],[1,0.5]];portConstraint=eastwest;whiteSpace=wrap;html=1;" parent="Iiu2SEGJSg8Paed58x13-32" vertex="1">
          <mxGeometry y="294" width="303" height="26" as="geometry" />
        </mxCell>
        <mxCell id="Iiu2SEGJSg8Paed58x13-37" value="+ getPhrase: String" style="text;strokeColor=none;fillColor=none;align=left;verticalAlign=top;spacingLeft=4;spacingRight=4;overflow=hidden;rotatable=0;points=[[0,0.5],[1,0.5]];portConstraint=eastwest;whiteSpace=wrap;html=1;" parent="Iiu2SEGJSg8Paed58x13-32" vertex="1">
          <mxGeometry y="320" width="303" height="26" as="geometry" />
        </mxCell>
        <mxCell id="Iiu2SEGJSg8Paed58x13-38" value="+ generateNewGenerationAndReplaceOld(): void" style="text;strokeColor=none;fillColor=none;align=left;verticalAlign=top;spacingLeft=4;spacingRight=4;overflow=hidden;rotatable=0;points=[[0,0.5],[1,0.5]];portConstraint=eastwest;whiteSpace=wrap;html=1;" parent="Iiu2SEGJSg8Paed58x13-32" vertex="1">
          <mxGeometry y="346" width="303" height="26" as="geometry" />
        </mxCell>
        <mxCell id="Iiu2SEGJSg8Paed58x13-39" value="+ getBest(): String" style="text;strokeColor=none;fillColor=none;align=left;verticalAlign=top;spacingLeft=4;spacingRight=4;overflow=hidden;rotatable=0;points=[[0,0.5],[1,0.5]];portConstraint=eastwest;whiteSpace=wrap;html=1;" parent="Iiu2SEGJSg8Paed58x13-32" vertex="1">
          <mxGeometry y="372" width="303" height="26" as="geometry" />
        </mxCell>
        <mxCell id="Iiu2SEGJSg8Paed58x13-40" value="+ findMostFitObject(): void" style="text;strokeColor=none;fillColor=none;align=left;verticalAlign=top;spacingLeft=4;spacingRight=4;overflow=hidden;rotatable=0;points=[[0,0.5],[1,0.5]];portConstraint=eastwest;whiteSpace=wrap;html=1;" parent="Iiu2SEGJSg8Paed58x13-32" vertex="1">
          <mxGeometry y="398" width="303" height="26" as="geometry" />
        </mxCell>
        <mxCell id="Iiu2SEGJSg8Paed58x13-49" value="+ trySetFinished(): void" style="text;strokeColor=none;fillColor=none;align=left;verticalAlign=top;spacingLeft=4;spacingRight=4;overflow=hidden;rotatable=0;points=[[0,0.5],[1,0.5]];portConstraint=eastwest;whiteSpace=wrap;html=1;" parent="Iiu2SEGJSg8Paed58x13-32" vertex="1">
          <mxGeometry y="424" width="303" height="26" as="geometry" />
        </mxCell>
        <mxCell id="Iiu2SEGJSg8Paed58x13-51" value="+ isFinished(): bool" style="text;strokeColor=none;fillColor=none;align=left;verticalAlign=top;spacingLeft=4;spacingRight=4;overflow=hidden;rotatable=0;points=[[0,0.5],[1,0.5]];portConstraint=eastwest;whiteSpace=wrap;html=1;" parent="Iiu2SEGJSg8Paed58x13-32" vertex="1">
          <mxGeometry y="450" width="303" height="26" as="geometry" />
        </mxCell>
        <mxCell id="Iiu2SEGJSg8Paed58x13-50" value="+ getGeneratio(): int" style="text;strokeColor=none;fillColor=none;align=left;verticalAlign=top;spacingLeft=4;spacingRight=4;overflow=hidden;rotatable=0;points=[[0,0.5],[1,0.5]];portConstraint=eastwest;whiteSpace=wrap;html=1;" parent="Iiu2SEGJSg8Paed58x13-32" vertex="1">
          <mxGeometry y="476" width="303" height="26" as="geometry" />
        </mxCell>
        <mxCell id="Iiu2SEGJSg8Paed58x13-53" value="+ getAverageFitness(): float" style="text;strokeColor=none;fillColor=none;align=left;verticalAlign=top;spacingLeft=4;spacingRight=4;overflow=hidden;rotatable=0;points=[[0,0.5],[1,0.5]];portConstraint=eastwest;whiteSpace=wrap;html=1;" parent="Iiu2SEGJSg8Paed58x13-32" vertex="1">
          <mxGeometry y="502" width="303" height="26" as="geometry" />
        </mxCell>
        <mxCell id="Iiu2SEGJSg8Paed58x13-52" value="+ getFirstFewPhrases(): String" style="text;strokeColor=none;fillColor=none;align=left;verticalAlign=top;spacingLeft=4;spacingRight=4;overflow=hidden;rotatable=0;points=[[0,0.5],[1,0.5]];portConstraint=eastwest;whiteSpace=wrap;html=1;" parent="Iiu2SEGJSg8Paed58x13-32" vertex="1">
          <mxGeometry y="528" width="303" height="26" as="geometry" />
        </mxCell>
      </root>
    </mxGraphModel>
  </diagram>
  <diagram id="gYbNHgF2JVlszl3bg0x4" name="Use-case diagram">
    <mxGraphModel dx="1434" dy="790" grid="1" gridSize="10" guides="1" tooltips="1" connect="1" arrows="1" fold="1" page="1" pageScale="1" pageWidth="827" pageHeight="1169" math="0" shadow="0">
      <root>
        <mxCell id="0" />
        <mxCell id="1" parent="0" />
        <mxCell id="GJQzVJolyqmn6fU5wKJg-1" style="rounded=0;orthogonalLoop=1;jettySize=auto;html=1;entryX=0;entryY=0.5;entryDx=0;entryDy=0;" edge="1" parent="1" target="GJQzVJolyqmn6fU5wKJg-9">
          <mxGeometry relative="1" as="geometry">
            <mxPoint x="134" y="585" as="sourcePoint" />
          </mxGeometry>
        </mxCell>
        <mxCell id="GJQzVJolyqmn6fU5wKJg-2" style="rounded=0;orthogonalLoop=1;jettySize=auto;html=1;entryX=0;entryY=0.5;entryDx=0;entryDy=0;" edge="1" parent="1" target="GJQzVJolyqmn6fU5wKJg-10">
          <mxGeometry relative="1" as="geometry">
            <mxPoint x="134" y="585" as="sourcePoint" />
          </mxGeometry>
        </mxCell>
        <mxCell id="GJQzVJolyqmn6fU5wKJg-3" style="rounded=0;orthogonalLoop=1;jettySize=auto;html=1;entryX=0;entryY=0.5;entryDx=0;entryDy=0;" edge="1" parent="1" target="GJQzVJolyqmn6fU5wKJg-14">
          <mxGeometry relative="1" as="geometry">
            <mxPoint x="134" y="585" as="sourcePoint" />
          </mxGeometry>
        </mxCell>
        <mxCell id="GJQzVJolyqmn6fU5wKJg-4" style="rounded=0;orthogonalLoop=1;jettySize=auto;html=1;entryX=0;entryY=0.5;entryDx=0;entryDy=0;" edge="1" parent="1" target="GJQzVJolyqmn6fU5wKJg-16">
          <mxGeometry relative="1" as="geometry">
            <mxPoint x="134" y="585" as="sourcePoint" />
          </mxGeometry>
        </mxCell>
        <mxCell id="GJQzVJolyqmn6fU5wKJg-5" style="rounded=0;orthogonalLoop=1;jettySize=auto;html=1;entryX=0;entryY=0.5;entryDx=0;entryDy=0;" edge="1" parent="1" target="GJQzVJolyqmn6fU5wKJg-18">
          <mxGeometry relative="1" as="geometry">
            <mxPoint x="134" y="585" as="sourcePoint" />
          </mxGeometry>
        </mxCell>
        <mxCell id="GJQzVJolyqmn6fU5wKJg-6" style="rounded=0;orthogonalLoop=1;jettySize=auto;html=1;entryX=0;entryY=0.5;entryDx=0;entryDy=0;" edge="1" parent="1" target="GJQzVJolyqmn6fU5wKJg-21">
          <mxGeometry relative="1" as="geometry">
            <mxPoint x="134" y="585" as="sourcePoint" />
          </mxGeometry>
        </mxCell>
        <mxCell id="GJQzVJolyqmn6fU5wKJg-7" style="rounded=0;orthogonalLoop=1;jettySize=auto;html=1;entryX=0;entryY=0.5;entryDx=0;entryDy=0;" edge="1" parent="1" target="GJQzVJolyqmn6fU5wKJg-22">
          <mxGeometry relative="1" as="geometry">
            <mxPoint x="134" y="585" as="sourcePoint" />
          </mxGeometry>
        </mxCell>
        <mxCell id="GJQzVJolyqmn6fU5wKJg-8" value="Elements &lt;br&gt;of &lt;br&gt;population" style="shape=umlActor;verticalLabelPosition=bottom;verticalAlign=top;html=1;outlineConnect=0;" vertex="1" parent="1">
          <mxGeometry x="84" y="545" width="40" height="80" as="geometry" />
        </mxCell>
        <mxCell id="GJQzVJolyqmn6fU5wKJg-9" value="Generate&lt;br&gt;population" style="ellipse;whiteSpace=wrap;html=1;" vertex="1" parent="1">
          <mxGeometry x="244" y="185" width="120" height="80" as="geometry" />
        </mxCell>
        <mxCell id="GJQzVJolyqmn6fU5wKJg-10" value="Live" style="ellipse;whiteSpace=wrap;html=1;" vertex="1" parent="1">
          <mxGeometry x="244" y="305" width="120" height="80" as="geometry" />
        </mxCell>
        <mxCell id="GJQzVJolyqmn6fU5wKJg-11" value="" style="sketch=0;outlineConnect=0;fontColor=#232F3E;gradientColor=none;fillColor=#232F3D;strokeColor=none;dashed=0;verticalLabelPosition=bottom;verticalAlign=top;align=center;html=1;fontSize=12;fontStyle=0;aspect=fixed;pointerEvents=1;shape=mxgraph.aws4.question;strokeWidth=1;opacity=50;" vertex="1" parent="1">
          <mxGeometry x="259" y="305" width="41" height="78" as="geometry" />
        </mxCell>
        <mxCell id="GJQzVJolyqmn6fU5wKJg-12" value="" style="sketch=0;outlineConnect=0;fontColor=#232F3E;gradientColor=none;fillColor=#232F3D;strokeColor=none;dashed=0;verticalLabelPosition=bottom;verticalAlign=top;align=center;html=1;fontSize=12;fontStyle=0;aspect=fixed;pointerEvents=1;shape=mxgraph.aws4.question;opacity=50;" vertex="1" parent="1">
          <mxGeometry x="306" y="305" width="41" height="78" as="geometry" />
        </mxCell>
        <mxCell id="GJQzVJolyqmn6fU5wKJg-13" style="edgeStyle=orthogonalEdgeStyle;rounded=0;orthogonalLoop=1;jettySize=auto;html=1;exitX=1;exitY=0.5;exitDx=0;exitDy=0;entryX=0;entryY=0.5;entryDx=0;entryDy=0;dashed=1;dashPattern=8 8;endArrow=open;endFill=0;" edge="1" parent="1" source="GJQzVJolyqmn6fU5wKJg-14" target="GJQzVJolyqmn6fU5wKJg-39">
          <mxGeometry relative="1" as="geometry" />
        </mxCell>
        <mxCell id="GJQzVJolyqmn6fU5wKJg-14" value="Calculate fitness" style="ellipse;whiteSpace=wrap;html=1;" vertex="1" parent="1">
          <mxGeometry x="244" y="425" width="120" height="80" as="geometry" />
        </mxCell>
        <mxCell id="GJQzVJolyqmn6fU5wKJg-15" style="rounded=0;orthogonalLoop=1;jettySize=auto;html=1;exitX=1;exitY=0;exitDx=0;exitDy=0;entryX=0.5;entryY=0;entryDx=0;entryDy=0;dashed=1;dashPattern=8 8;endArrow=open;endFill=0;" edge="1" parent="1" source="GJQzVJolyqmn6fU5wKJg-16" target="GJQzVJolyqmn6fU5wKJg-41">
          <mxGeometry relative="1" as="geometry" />
        </mxCell>
        <mxCell id="GJQzVJolyqmn6fU5wKJg-16" value="Generate &lt;br&gt;mating pool" style="ellipse;whiteSpace=wrap;html=1;" vertex="1" parent="1">
          <mxGeometry x="244" y="545" width="120" height="80" as="geometry" />
        </mxCell>
        <mxCell id="GJQzVJolyqmn6fU5wKJg-17" style="rounded=0;orthogonalLoop=1;jettySize=auto;html=1;exitX=1;exitY=1;exitDx=0;exitDy=0;entryX=0.5;entryY=1;entryDx=0;entryDy=0;dashed=1;dashPattern=8 8;endArrow=open;endFill=0;" edge="1" parent="1" source="GJQzVJolyqmn6fU5wKJg-18" target="GJQzVJolyqmn6fU5wKJg-41">
          <mxGeometry relative="1" as="geometry" />
        </mxCell>
        <mxCell id="GJQzVJolyqmn6fU5wKJg-18" value="Select parents" style="ellipse;whiteSpace=wrap;html=1;" vertex="1" parent="1">
          <mxGeometry x="244" y="665" width="120" height="80" as="geometry" />
        </mxCell>
        <mxCell id="GJQzVJolyqmn6fU5wKJg-19" style="rounded=0;orthogonalLoop=1;jettySize=auto;html=1;exitX=1;exitY=0.5;exitDx=0;exitDy=0;entryX=0;entryY=0.5;entryDx=0;entryDy=0;dashed=1;dashPattern=8 8;endArrow=open;endFill=0;" edge="1" parent="1" source="GJQzVJolyqmn6fU5wKJg-21" target="GJQzVJolyqmn6fU5wKJg-44">
          <mxGeometry relative="1" as="geometry" />
        </mxCell>
        <mxCell id="GJQzVJolyqmn6fU5wKJg-20" style="rounded=0;orthogonalLoop=1;jettySize=auto;html=1;exitX=1;exitY=0.5;exitDx=0;exitDy=0;entryX=0;entryY=0.5;entryDx=0;entryDy=0;dashed=1;dashPattern=8 8;endArrow=open;endFill=0;" edge="1" parent="1" source="GJQzVJolyqmn6fU5wKJg-21" target="GJQzVJolyqmn6fU5wKJg-45">
          <mxGeometry relative="1" as="geometry" />
        </mxCell>
        <mxCell id="GJQzVJolyqmn6fU5wKJg-21" value="&lt;div&gt;Reproduce&lt;/div&gt;(Make child)" style="ellipse;whiteSpace=wrap;html=1;" vertex="1" parent="1">
          <mxGeometry x="244" y="785" width="120" height="80" as="geometry" />
        </mxCell>
        <mxCell id="GJQzVJolyqmn6fU5wKJg-22" value="Replace &lt;strike&gt;parents&lt;br&gt;&lt;/strike&gt;population" style="ellipse;whiteSpace=wrap;html=1;" vertex="1" parent="1">
          <mxGeometry x="244" y="905" width="120" height="80" as="geometry" />
        </mxCell>
        <mxCell id="GJQzVJolyqmn6fU5wKJg-23" style="edgeStyle=orthogonalEdgeStyle;rounded=0;orthogonalLoop=1;jettySize=auto;html=1;exitX=0;exitY=0.5;exitDx=0;exitDy=0;entryX=1;entryY=0.5;entryDx=0;entryDy=0;dashed=1;dashPattern=8 8;endArrow=open;endFill=0;" edge="1" parent="1" source="GJQzVJolyqmn6fU5wKJg-24" target="GJQzVJolyqmn6fU5wKJg-9">
          <mxGeometry relative="1" as="geometry" />
        </mxCell>
        <mxCell id="GJQzVJolyqmn6fU5wKJg-24" value="Setup" style="ellipse;whiteSpace=wrap;html=1;" vertex="1" parent="1">
          <mxGeometry x="484" y="185" width="120" height="80" as="geometry" />
        </mxCell>
        <mxCell id="GJQzVJolyqmn6fU5wKJg-25" value="&amp;lt;&amp;lt;extends&amp;gt;&amp;gt;" style="text;html=1;align=center;verticalAlign=middle;resizable=0;points=[];autosize=1;strokeColor=none;fillColor=none;" vertex="1" parent="1">
          <mxGeometry x="369" y="233" width="90" height="30" as="geometry" />
        </mxCell>
        <mxCell id="GJQzVJolyqmn6fU5wKJg-26" style="rounded=0;orthogonalLoop=1;jettySize=auto;html=1;exitX=0;exitY=0.5;exitDx=0;exitDy=0;entryX=1;entryY=0.5;entryDx=0;entryDy=0;dashed=1;dashPattern=8 8;endArrow=open;endFill=0;" edge="1" parent="1" source="GJQzVJolyqmn6fU5wKJg-32" target="GJQzVJolyqmn6fU5wKJg-10">
          <mxGeometry relative="1" as="geometry" />
        </mxCell>
        <mxCell id="GJQzVJolyqmn6fU5wKJg-27" style="rounded=0;orthogonalLoop=1;jettySize=auto;html=1;exitX=0;exitY=0.5;exitDx=0;exitDy=0;entryX=1;entryY=0.5;entryDx=0;entryDy=0;dashed=1;dashPattern=8 8;endArrow=open;endFill=0;" edge="1" parent="1" source="GJQzVJolyqmn6fU5wKJg-32" target="GJQzVJolyqmn6fU5wKJg-14">
          <mxGeometry relative="1" as="geometry" />
        </mxCell>
        <mxCell id="GJQzVJolyqmn6fU5wKJg-28" style="rounded=0;orthogonalLoop=1;jettySize=auto;html=1;exitX=0;exitY=0.5;exitDx=0;exitDy=0;entryX=1;entryY=0.5;entryDx=0;entryDy=0;dashed=1;dashPattern=8 8;endArrow=open;endFill=0;" edge="1" parent="1" source="GJQzVJolyqmn6fU5wKJg-32" target="GJQzVJolyqmn6fU5wKJg-16">
          <mxGeometry relative="1" as="geometry" />
        </mxCell>
        <mxCell id="GJQzVJolyqmn6fU5wKJg-29" style="rounded=0;orthogonalLoop=1;jettySize=auto;html=1;exitX=0;exitY=0.5;exitDx=0;exitDy=0;entryX=1;entryY=0.5;entryDx=0;entryDy=0;dashed=1;dashPattern=8 8;endArrow=open;endFill=0;" edge="1" parent="1" source="GJQzVJolyqmn6fU5wKJg-32" target="GJQzVJolyqmn6fU5wKJg-18">
          <mxGeometry relative="1" as="geometry" />
        </mxCell>
        <mxCell id="GJQzVJolyqmn6fU5wKJg-30" style="rounded=0;orthogonalLoop=1;jettySize=auto;html=1;exitX=0;exitY=0.5;exitDx=0;exitDy=0;entryX=1;entryY=0.5;entryDx=0;entryDy=0;dashed=1;dashPattern=8 8;endArrow=open;endFill=0;" edge="1" parent="1" source="GJQzVJolyqmn6fU5wKJg-32" target="GJQzVJolyqmn6fU5wKJg-21">
          <mxGeometry relative="1" as="geometry" />
        </mxCell>
        <mxCell id="GJQzVJolyqmn6fU5wKJg-31" style="rounded=0;orthogonalLoop=1;jettySize=auto;html=1;exitX=0;exitY=0.5;exitDx=0;exitDy=0;entryX=1;entryY=0.5;entryDx=0;entryDy=0;dashed=1;dashPattern=8 8;endArrow=open;endFill=0;" edge="1" parent="1" source="GJQzVJolyqmn6fU5wKJg-32" target="GJQzVJolyqmn6fU5wKJg-22">
          <mxGeometry relative="1" as="geometry" />
        </mxCell>
        <mxCell id="GJQzVJolyqmn6fU5wKJg-32" value="Draw" style="ellipse;whiteSpace=wrap;html=1;" vertex="1" parent="1">
          <mxGeometry x="479" y="605" width="120" height="80" as="geometry" />
        </mxCell>
        <mxCell id="GJQzVJolyqmn6fU5wKJg-33" value="&amp;lt;&amp;lt;extends&amp;gt;&amp;gt;" style="text;html=1;align=center;verticalAlign=middle;resizable=0;points=[];autosize=1;strokeColor=none;fillColor=none;" vertex="1" parent="1">
          <mxGeometry x="384" y="395" width="90" height="30" as="geometry" />
        </mxCell>
        <mxCell id="GJQzVJolyqmn6fU5wKJg-34" value="&amp;lt;&amp;lt;extends&amp;gt;&amp;gt;" style="text;html=1;align=center;verticalAlign=middle;resizable=0;points=[];autosize=1;strokeColor=none;fillColor=none;" vertex="1" parent="1">
          <mxGeometry x="324" y="525" width="90" height="30" as="geometry" />
        </mxCell>
        <mxCell id="GJQzVJolyqmn6fU5wKJg-35" value="&amp;lt;&amp;lt;extends&amp;gt;&amp;gt;" style="text;html=1;align=center;verticalAlign=middle;resizable=0;points=[];autosize=1;strokeColor=none;fillColor=none;" vertex="1" parent="1">
          <mxGeometry x="347" y="615" width="90" height="30" as="geometry" />
        </mxCell>
        <mxCell id="GJQzVJolyqmn6fU5wKJg-36" value="&amp;lt;&amp;lt;extends&amp;gt;&amp;gt;" style="text;html=1;align=center;verticalAlign=middle;resizable=0;points=[];autosize=1;strokeColor=none;fillColor=none;" vertex="1" parent="1">
          <mxGeometry x="347" y="645" width="90" height="30" as="geometry" />
        </mxCell>
        <mxCell id="GJQzVJolyqmn6fU5wKJg-37" value="&amp;lt;&amp;lt;extends&amp;gt;&amp;gt;" style="text;html=1;align=center;verticalAlign=middle;resizable=0;points=[];autosize=1;strokeColor=none;fillColor=none;" vertex="1" parent="1">
          <mxGeometry x="314" y="755" width="90" height="30" as="geometry" />
        </mxCell>
        <mxCell id="GJQzVJolyqmn6fU5wKJg-38" value="&amp;lt;&amp;lt;extends&amp;gt;&amp;gt;" style="text;html=1;align=center;verticalAlign=middle;resizable=0;points=[];autosize=1;strokeColor=none;fillColor=none;" vertex="1" parent="1">
          <mxGeometry x="384" y="865" width="90" height="30" as="geometry" />
        </mxCell>
        <mxCell id="GJQzVJolyqmn6fU5wKJg-39" value="Fitness function" style="ellipse;whiteSpace=wrap;html=1;" vertex="1" parent="1">
          <mxGeometry x="624" y="425" width="120" height="80" as="geometry" />
        </mxCell>
        <mxCell id="GJQzVJolyqmn6fU5wKJg-40" value="&amp;lt;&amp;lt;includes&amp;gt;&amp;gt;" style="text;html=1;align=center;verticalAlign=middle;resizable=0;points=[];autosize=1;strokeColor=none;fillColor=none;" vertex="1" parent="1">
          <mxGeometry x="422" y="435" width="100" height="30" as="geometry" />
        </mxCell>
        <mxCell id="GJQzVJolyqmn6fU5wKJg-41" value="Selection process" style="ellipse;whiteSpace=wrap;html=1;" vertex="1" parent="1">
          <mxGeometry x="624" y="605" width="120" height="80" as="geometry" />
        </mxCell>
        <mxCell id="GJQzVJolyqmn6fU5wKJg-42" value="&amp;lt;&amp;lt;extends&amp;gt;&amp;gt;" style="text;html=1;align=center;verticalAlign=middle;resizable=0;points=[];autosize=1;strokeColor=none;fillColor=none;" vertex="1" parent="1">
          <mxGeometry x="499" y="555" width="90" height="30" as="geometry" />
        </mxCell>
        <mxCell id="GJQzVJolyqmn6fU5wKJg-43" value="&amp;lt;&amp;lt;extends&amp;gt;&amp;gt;" style="text;html=1;align=center;verticalAlign=middle;resizable=0;points=[];autosize=1;strokeColor=none;fillColor=none;" vertex="1" parent="1">
          <mxGeometry x="494" y="705" width="90" height="30" as="geometry" />
        </mxCell>
        <mxCell id="GJQzVJolyqmn6fU5wKJg-44" value="crossover function" style="ellipse;whiteSpace=wrap;html=1;" vertex="1" parent="1">
          <mxGeometry x="624" y="730" width="120" height="80" as="geometry" />
        </mxCell>
        <mxCell id="GJQzVJolyqmn6fU5wKJg-45" value="mutation function" style="ellipse;whiteSpace=wrap;html=1;" vertex="1" parent="1">
          <mxGeometry x="624" y="825" width="120" height="80" as="geometry" />
        </mxCell>
        <mxCell id="GJQzVJolyqmn6fU5wKJg-46" value="&amp;lt;&amp;lt;includes&amp;gt;&amp;gt;" style="text;html=1;align=center;verticalAlign=middle;resizable=0;points=[];autosize=1;strokeColor=none;fillColor=none;" vertex="1" parent="1">
          <mxGeometry x="499" y="855" width="100" height="30" as="geometry" />
        </mxCell>
        <mxCell id="GJQzVJolyqmn6fU5wKJg-47" value="&amp;lt;&amp;lt;includes&amp;gt;&amp;gt;" style="text;html=1;align=center;verticalAlign=middle;resizable=0;points=[];autosize=1;strokeColor=none;fillColor=none;" vertex="1" parent="1">
          <mxGeometry x="499" y="754" width="100" height="30" as="geometry" />
        </mxCell>
      </root>
    </mxGraphModel>
  </diagram>
  <diagram id="VWm1ibxC2W2PxQCmzSu_" name="Activity diagram">
    <mxGraphModel dx="1434" dy="-379" grid="1" gridSize="10" guides="1" tooltips="1" connect="1" arrows="1" fold="1" page="1" pageScale="1" pageWidth="827" pageHeight="1169" math="0" shadow="0">
      <root>
        <mxCell id="0" />
        <mxCell id="1" parent="0" />
        <mxCell id="J4KCyQgy4m4bBlxzk7Bu-1" value="" style="rounded=1;whiteSpace=wrap;html=1;fillColor=none;" parent="1" vertex="1">
          <mxGeometry y="1169" width="820" height="2550" as="geometry" />
        </mxCell>
        <mxCell id="J4KCyQgy4m4bBlxzk7Bu-2" value="" style="rounded=1;whiteSpace=wrap;html=1;fillColor=none;dashed=1;" parent="1" vertex="1">
          <mxGeometry x="130" y="1249" width="670" height="1040" as="geometry" />
        </mxCell>
        <mxCell id="J4KCyQgy4m4bBlxzk7Bu-3" value="" style="rounded=1;whiteSpace=wrap;html=1;fillColor=none;dashed=1;" parent="1" vertex="1">
          <mxGeometry x="15" y="2329" width="735" height="1370" as="geometry" />
        </mxCell>
        <mxCell id="J4KCyQgy4m4bBlxzk7Bu-4" style="edgeStyle=orthogonalEdgeStyle;rounded=0;orthogonalLoop=1;jettySize=auto;html=1;exitX=0.5;exitY=1;exitDx=0;exitDy=0;entryX=0.5;entryY=0;entryDx=0;entryDy=0;" parent="1" source="J4KCyQgy4m4bBlxzk7Bu-5" target="J4KCyQgy4m4bBlxzk7Bu-7" edge="1">
          <mxGeometry relative="1" as="geometry" />
        </mxCell>
        <mxCell id="J4KCyQgy4m4bBlxzk7Bu-5" value="" style="ellipse;whiteSpace=wrap;html=1;aspect=fixed;fillColor=#000000;strokeColor=default;" parent="1" vertex="1">
          <mxGeometry x="380" y="1259" width="38" height="38" as="geometry" />
        </mxCell>
        <mxCell id="J4KCyQgy4m4bBlxzk7Bu-6" style="edgeStyle=orthogonalEdgeStyle;rounded=0;orthogonalLoop=1;jettySize=auto;html=1;exitX=0.5;exitY=1;exitDx=0;exitDy=0;entryX=0.501;entryY=0;entryDx=0;entryDy=0;entryPerimeter=0;" parent="1" source="J4KCyQgy4m4bBlxzk7Bu-7" target="J4KCyQgy4m4bBlxzk7Bu-19" edge="1">
          <mxGeometry relative="1" as="geometry">
            <mxPoint x="320" y="1419" as="targetPoint" />
          </mxGeometry>
        </mxCell>
        <mxCell id="J4KCyQgy4m4bBlxzk7Bu-7" value="Create class for objects" style="rounded=1;whiteSpace=wrap;html=1;" parent="1" vertex="1">
          <mxGeometry x="339" y="1339" width="120" height="60" as="geometry" />
        </mxCell>
        <mxCell id="J4KCyQgy4m4bBlxzk7Bu-8" style="edgeStyle=orthogonalEdgeStyle;rounded=0;orthogonalLoop=1;jettySize=auto;html=1;exitX=0.4;exitY=1;exitDx=0;exitDy=0;exitPerimeter=0;entryX=0.081;entryY=-0.071;entryDx=0;entryDy=0;entryPerimeter=0;" parent="1" source="J4KCyQgy4m4bBlxzk7Bu-9" target="J4KCyQgy4m4bBlxzk7Bu-40" edge="1">
          <mxGeometry relative="1" as="geometry">
            <mxPoint x="182" y="2029" as="targetPoint" />
            <Array as="points" />
          </mxGeometry>
        </mxCell>
        <mxCell id="J4KCyQgy4m4bBlxzk7Bu-9" value="Encode Phenotype&lt;div&gt;(create Genotype [DNA] &lt;br&gt;and assign values)&amp;nbsp;&lt;/div&gt;" style="rounded=1;whiteSpace=wrap;html=1;" parent="1" vertex="1">
          <mxGeometry x="144" y="1799" width="150" height="60" as="geometry" />
        </mxCell>
        <mxCell id="J4KCyQgy4m4bBlxzk7Bu-10" style="edgeStyle=orthogonalEdgeStyle;rounded=0;orthogonalLoop=1;jettySize=auto;html=1;exitX=0.5;exitY=1;exitDx=0;exitDy=0;entryX=0.386;entryY=0.048;entryDx=0;entryDy=0;entryPerimeter=0;" parent="1" source="J4KCyQgy4m4bBlxzk7Bu-11" target="J4KCyQgy4m4bBlxzk7Bu-40" edge="1">
          <mxGeometry relative="1" as="geometry">
            <mxPoint x="394" y="1969" as="targetPoint" />
            <Array as="points">
              <mxPoint x="394" y="2158" />
            </Array>
          </mxGeometry>
        </mxCell>
        <mxCell id="J4KCyQgy4m4bBlxzk7Bu-11" value="Create&lt;br&gt;fitness function" style="rounded=1;whiteSpace=wrap;html=1;" parent="1" vertex="1">
          <mxGeometry x="334" y="1799" width="120" height="60" as="geometry" />
        </mxCell>
        <mxCell id="J4KCyQgy4m4bBlxzk7Bu-12" style="edgeStyle=orthogonalEdgeStyle;rounded=0;orthogonalLoop=1;jettySize=auto;html=1;exitX=0.5;exitY=1;exitDx=0;exitDy=0;entryX=0.643;entryY=0.048;entryDx=0;entryDy=0;entryPerimeter=0;" parent="1" source="J4KCyQgy4m4bBlxzk7Bu-13" target="J4KCyQgy4m4bBlxzk7Bu-40" edge="1">
          <mxGeometry relative="1" as="geometry">
            <mxPoint x="554" y="2149" as="targetPoint" />
            <Array as="points" />
          </mxGeometry>
        </mxCell>
        <mxCell id="J4KCyQgy4m4bBlxzk7Bu-13" value="Create&lt;br&gt;crossover function" style="rounded=1;whiteSpace=wrap;html=1;" parent="1" vertex="1">
          <mxGeometry x="493" y="1799" width="120" height="60" as="geometry" />
        </mxCell>
        <mxCell id="J4KCyQgy4m4bBlxzk7Bu-14" style="edgeStyle=orthogonalEdgeStyle;rounded=0;orthogonalLoop=1;jettySize=auto;html=1;exitX=0;exitY=0.5;exitDx=0;exitDy=0;endArrow=none;endFill=0;dashed=1;dashPattern=8 8;" parent="1" source="J4KCyQgy4m4bBlxzk7Bu-16" target="J4KCyQgy4m4bBlxzk7Bu-32" edge="1">
          <mxGeometry relative="1" as="geometry" />
        </mxCell>
        <mxCell id="J4KCyQgy4m4bBlxzk7Bu-15" style="edgeStyle=orthogonalEdgeStyle;rounded=0;orthogonalLoop=1;jettySize=auto;html=1;exitX=0.5;exitY=1;exitDx=0;exitDy=0;entryX=0.903;entryY=0.048;entryDx=0;entryDy=0;entryPerimeter=0;" parent="1" source="J4KCyQgy4m4bBlxzk7Bu-16" target="J4KCyQgy4m4bBlxzk7Bu-40" edge="1">
          <mxGeometry relative="1" as="geometry">
            <mxPoint x="720" y="2156" as="targetPoint" />
            <Array as="points" />
          </mxGeometry>
        </mxCell>
        <mxCell id="J4KCyQgy4m4bBlxzk7Bu-16" value="Create&lt;br&gt;mutation Function" style="rounded=1;whiteSpace=wrap;html=1;" parent="1" vertex="1">
          <mxGeometry x="654" y="1799" width="120" height="60" as="geometry" />
        </mxCell>
        <mxCell id="J4KCyQgy4m4bBlxzk7Bu-17" style="edgeStyle=orthogonalEdgeStyle;rounded=0;orthogonalLoop=1;jettySize=auto;html=1;exitX=0.5;exitY=1;exitDx=0;exitDy=0;entryX=0.5;entryY=0;entryDx=0;entryDy=0;" parent="1" source="J4KCyQgy4m4bBlxzk7Bu-18" target="J4KCyQgy4m4bBlxzk7Bu-43" edge="1">
          <mxGeometry relative="1" as="geometry" />
        </mxCell>
        <mxCell id="J4KCyQgy4m4bBlxzk7Bu-18" value="Let every object from the population live for N amount of time" style="rounded=1;whiteSpace=wrap;html=1;" parent="1" vertex="1">
          <mxGeometry x="334" y="2339" width="120" height="60" as="geometry" />
        </mxCell>
        <mxCell id="J4KCyQgy4m4bBlxzk7Bu-19" value="" style="text;strokeColor=default;fillColor=#000000;align=left;verticalAlign=middle;spacingTop=-1;spacingLeft=4;spacingRight=4;rotatable=0;labelPosition=right;points=[];portConstraint=eastwest;rounded=1;perimeterSpacing=0;strokeWidth=3;" parent="1" vertex="1">
          <mxGeometry x="314" y="1439" width="170" height="14" as="geometry" />
        </mxCell>
        <mxCell id="J4KCyQgy4m4bBlxzk7Bu-20" value="Create Phenotype (Create class fields and methods)" style="rounded=1;whiteSpace=wrap;html=1;" parent="1" vertex="1">
          <mxGeometry x="337" y="1490" width="120" height="60" as="geometry" />
        </mxCell>
        <mxCell id="J4KCyQgy4m4bBlxzk7Bu-21" value="Determine the rate at which it &quot;sets into&quot;&lt;div&gt;the aproximate answer&lt;/div&gt;" style="shape=note;whiteSpace=wrap;html=1;backgroundOutline=1;darkOpacity=0.05;" parent="1" vertex="1">
          <mxGeometry x="236" y="1899" width="130" height="100" as="geometry" />
        </mxCell>
        <mxCell id="J4KCyQgy4m4bBlxzk7Bu-22" style="edgeStyle=orthogonalEdgeStyle;rounded=0;orthogonalLoop=1;jettySize=auto;html=1;exitX=0;exitY=0.5;exitDx=0;exitDy=0;entryX=0.6;entryY=-0.03;entryDx=0;entryDy=0;entryPerimeter=0;endArrow=none;endFill=0;dashed=1;dashPattern=8 8;" parent="1" source="J4KCyQgy4m4bBlxzk7Bu-11" target="J4KCyQgy4m4bBlxzk7Bu-21" edge="1">
          <mxGeometry relative="1" as="geometry" />
        </mxCell>
        <mxCell id="J4KCyQgy4m4bBlxzk7Bu-23" style="rounded=0;orthogonalLoop=1;jettySize=auto;html=1;exitX=0.5;exitY=0;exitDx=0;exitDy=0;entryX=0.486;entryY=0.857;entryDx=0;entryDy=0;entryPerimeter=0;endArrow=none;endFill=0;startArrow=classic;startFill=1;" parent="1" source="J4KCyQgy4m4bBlxzk7Bu-20" target="J4KCyQgy4m4bBlxzk7Bu-19" edge="1">
          <mxGeometry relative="1" as="geometry" />
        </mxCell>
        <mxCell id="J4KCyQgy4m4bBlxzk7Bu-24" value="" style="text;strokeColor=default;fillColor=#000000;align=left;verticalAlign=middle;spacingTop=-1;spacingLeft=4;spacingRight=4;rotatable=0;labelPosition=right;points=[];portConstraint=eastwest;rounded=1;perimeterSpacing=0;strokeWidth=3;" parent="1" vertex="1">
          <mxGeometry x="312" y="1589" width="170" height="14" as="geometry" />
        </mxCell>
        <mxCell id="J4KCyQgy4m4bBlxzk7Bu-25" value="Determine how fitness will be calculated" style="shape=note;whiteSpace=wrap;html=1;backgroundOutline=1;darkOpacity=0.05;" parent="1" vertex="1">
          <mxGeometry x="237" y="2019" width="130" height="100" as="geometry" />
        </mxCell>
        <mxCell id="J4KCyQgy4m4bBlxzk7Bu-26" style="edgeStyle=orthogonalEdgeStyle;rounded=0;orthogonalLoop=1;jettySize=auto;html=1;exitX=0;exitY=0.5;exitDx=0;exitDy=0;entryX=0.451;entryY=-0.013;entryDx=0;entryDy=0;entryPerimeter=0;dashed=1;dashPattern=8 8;endArrow=none;endFill=0;" parent="1" source="J4KCyQgy4m4bBlxzk7Bu-11" target="J4KCyQgy4m4bBlxzk7Bu-25" edge="1">
          <mxGeometry relative="1" as="geometry">
            <Array as="points">
              <mxPoint x="314" y="1829" />
              <mxPoint x="314" y="1879" />
              <mxPoint x="224" y="1879" />
              <mxPoint x="224" y="2009" />
              <mxPoint x="296" y="2009" />
            </Array>
          </mxGeometry>
        </mxCell>
        <mxCell id="J4KCyQgy4m4bBlxzk7Bu-27" style="edgeStyle=orthogonalEdgeStyle;rounded=0;orthogonalLoop=1;jettySize=auto;html=1;exitX=0.5;exitY=1;exitDx=0;exitDy=0;entryX=0.493;entryY=-0.095;entryDx=0;entryDy=0;entryPerimeter=0;" parent="1" source="J4KCyQgy4m4bBlxzk7Bu-20" target="J4KCyQgy4m4bBlxzk7Bu-24" edge="1">
          <mxGeometry relative="1" as="geometry" />
        </mxCell>
        <mxCell id="J4KCyQgy4m4bBlxzk7Bu-28" value="Create DNA class&amp;nbsp;" style="rounded=1;whiteSpace=wrap;html=1;" parent="1" vertex="1">
          <mxGeometry x="334" y="1649" width="120" height="60" as="geometry" />
        </mxCell>
        <mxCell id="J4KCyQgy4m4bBlxzk7Bu-29" style="rounded=0;orthogonalLoop=1;jettySize=auto;html=1;exitX=0.5;exitY=0;exitDx=0;exitDy=0;entryX=0.482;entryY=0.976;entryDx=0;entryDy=0;entryPerimeter=0;startArrow=classic;startFill=1;endArrow=none;endFill=0;" parent="1" source="J4KCyQgy4m4bBlxzk7Bu-28" target="J4KCyQgy4m4bBlxzk7Bu-24" edge="1">
          <mxGeometry relative="1" as="geometry">
            <mxPoint x="397" y="1619" as="targetPoint" />
          </mxGeometry>
        </mxCell>
        <mxCell id="J4KCyQgy4m4bBlxzk7Bu-30" value="" style="text;strokeColor=default;fillColor=#000000;align=left;verticalAlign=middle;spacingTop=-1;spacingLeft=4;spacingRight=4;rotatable=0;labelPosition=right;points=[];portConstraint=eastwest;rounded=1;perimeterSpacing=0;strokeWidth=3;" parent="1" vertex="1">
          <mxGeometry x="154" y="1749" width="620" height="14" as="geometry" />
        </mxCell>
        <mxCell id="J4KCyQgy4m4bBlxzk7Bu-31" value="Determine how new genes are created" style="shape=note;whiteSpace=wrap;html=1;backgroundOutline=1;darkOpacity=0.05;" parent="1" vertex="1">
          <mxGeometry x="426.5" y="1899" width="95" height="100" as="geometry" />
        </mxCell>
        <mxCell id="J4KCyQgy4m4bBlxzk7Bu-32" value="Determine &lt;br&gt;the mutation rare." style="shape=note;whiteSpace=wrap;html=1;backgroundOutline=1;darkOpacity=0.05;" parent="1" vertex="1">
          <mxGeometry x="584" y="1899" width="100" height="100" as="geometry" />
        </mxCell>
        <mxCell id="J4KCyQgy4m4bBlxzk7Bu-33" style="edgeStyle=orthogonalEdgeStyle;rounded=0;orthogonalLoop=1;jettySize=auto;html=1;exitX=0;exitY=0.5;exitDx=0;exitDy=0;entryX=0.421;entryY=0.028;entryDx=0;entryDy=0;entryPerimeter=0;dashed=1;dashPattern=8 8;endArrow=none;endFill=0;" parent="1" source="J4KCyQgy4m4bBlxzk7Bu-13" target="J4KCyQgy4m4bBlxzk7Bu-31" edge="1">
          <mxGeometry relative="1" as="geometry">
            <Array as="points">
              <mxPoint x="467" y="1829" />
            </Array>
          </mxGeometry>
        </mxCell>
        <mxCell id="J4KCyQgy4m4bBlxzk7Bu-34" style="rounded=0;orthogonalLoop=1;jettySize=auto;html=1;exitX=0.5;exitY=1;exitDx=0;exitDy=0;" parent="1" source="J4KCyQgy4m4bBlxzk7Bu-28" edge="1">
          <mxGeometry relative="1" as="geometry">
            <mxPoint x="394" y="1749" as="targetPoint" />
          </mxGeometry>
        </mxCell>
        <mxCell id="J4KCyQgy4m4bBlxzk7Bu-35" style="rounded=0;orthogonalLoop=1;jettySize=auto;html=1;exitX=0.5;exitY=0;exitDx=0;exitDy=0;entryX=0.105;entryY=0.976;entryDx=0;entryDy=0;entryPerimeter=0;startArrow=classic;startFill=1;endArrow=none;endFill=0;" parent="1" source="J4KCyQgy4m4bBlxzk7Bu-9" target="J4KCyQgy4m4bBlxzk7Bu-30" edge="1">
          <mxGeometry relative="1" as="geometry">
            <mxPoint x="219" y="1779" as="targetPoint" />
          </mxGeometry>
        </mxCell>
        <mxCell id="J4KCyQgy4m4bBlxzk7Bu-36" style="edgeStyle=orthogonalEdgeStyle;rounded=0;orthogonalLoop=1;jettySize=auto;html=1;exitX=0.5;exitY=0;exitDx=0;exitDy=0;entryX=0.387;entryY=1.036;entryDx=0;entryDy=0;entryPerimeter=0;startArrow=classic;startFill=1;endArrow=none;endFill=0;" parent="1" source="J4KCyQgy4m4bBlxzk7Bu-11" target="J4KCyQgy4m4bBlxzk7Bu-30" edge="1">
          <mxGeometry relative="1" as="geometry" />
        </mxCell>
        <mxCell id="J4KCyQgy4m4bBlxzk7Bu-37" style="rounded=0;orthogonalLoop=1;jettySize=auto;html=1;exitX=0.5;exitY=0;exitDx=0;exitDy=0;startArrow=classic;startFill=1;endArrow=none;endFill=0;" parent="1" source="J4KCyQgy4m4bBlxzk7Bu-16" edge="1">
          <mxGeometry relative="1" as="geometry">
            <mxPoint x="714" y="1764" as="targetPoint" />
          </mxGeometry>
        </mxCell>
        <mxCell id="J4KCyQgy4m4bBlxzk7Bu-38" style="rounded=0;orthogonalLoop=1;jettySize=auto;html=1;exitX=0.5;exitY=0;exitDx=0;exitDy=0;startArrow=classic;startFill=1;endArrow=none;endFill=0;entryX=0.645;entryY=0.714;entryDx=0;entryDy=0;entryPerimeter=0;" parent="1" source="J4KCyQgy4m4bBlxzk7Bu-13" target="J4KCyQgy4m4bBlxzk7Bu-30" edge="1">
          <mxGeometry relative="1" as="geometry" />
        </mxCell>
        <mxCell id="J4KCyQgy4m4bBlxzk7Bu-39" value="Process of creation of GA and object life cycle" style="text;html=1;align=center;verticalAlign=middle;resizable=0;points=[];autosize=1;strokeColor=none;fillColor=none;" parent="1" vertex="1">
          <mxGeometry x="288" y="1169" width="270" height="30" as="geometry" />
        </mxCell>
        <mxCell id="J4KCyQgy4m4bBlxzk7Bu-40" value="" style="text;strokeColor=default;fillColor=#000000;align=left;verticalAlign=middle;spacingTop=-1;spacingLeft=4;spacingRight=4;rotatable=0;labelPosition=right;points=[];portConstraint=eastwest;rounded=1;perimeterSpacing=0;strokeWidth=3;" parent="1" vertex="1">
          <mxGeometry x="154" y="2157" width="620" height="14" as="geometry" />
        </mxCell>
        <mxCell id="J4KCyQgy4m4bBlxzk7Bu-41" style="edgeStyle=orthogonalEdgeStyle;rounded=0;orthogonalLoop=1;jettySize=auto;html=1;exitX=0.5;exitY=0;exitDx=0;exitDy=0;entryX=0.386;entryY=1;entryDx=0;entryDy=0;entryPerimeter=0;startArrow=classic;startFill=1;endArrow=none;endFill=0;" parent="1" source="J4KCyQgy4m4bBlxzk7Bu-95" target="J4KCyQgy4m4bBlxzk7Bu-40" edge="1">
          <mxGeometry relative="1" as="geometry" />
        </mxCell>
        <mxCell id="J4KCyQgy4m4bBlxzk7Bu-42" style="edgeStyle=orthogonalEdgeStyle;rounded=0;orthogonalLoop=1;jettySize=auto;html=1;exitX=0.5;exitY=1;exitDx=0;exitDy=0;entryX=0.5;entryY=0;entryDx=0;entryDy=0;" parent="1" source="J4KCyQgy4m4bBlxzk7Bu-43" target="J4KCyQgy4m4bBlxzk7Bu-46" edge="1">
          <mxGeometry relative="1" as="geometry" />
        </mxCell>
        <mxCell id="J4KCyQgy4m4bBlxzk7Bu-43" value="Calculate the fitness scores of every object in the population" style="rounded=1;whiteSpace=wrap;html=1;" parent="1" vertex="1">
          <mxGeometry x="334" y="2439" width="120" height="60" as="geometry" />
        </mxCell>
        <mxCell id="J4KCyQgy4m4bBlxzk7Bu-44" style="edgeStyle=orthogonalEdgeStyle;rounded=0;orthogonalLoop=1;jettySize=auto;html=1;exitX=0;exitY=0.5;exitDx=0;exitDy=0;entryX=0.5;entryY=0;entryDx=0;entryDy=0;" parent="1" source="J4KCyQgy4m4bBlxzk7Bu-46" target="J4KCyQgy4m4bBlxzk7Bu-49" edge="1">
          <mxGeometry relative="1" as="geometry">
            <Array as="points">
              <mxPoint x="272" y="2579" />
            </Array>
          </mxGeometry>
        </mxCell>
        <mxCell id="J4KCyQgy4m4bBlxzk7Bu-45" style="edgeStyle=orthogonalEdgeStyle;rounded=0;orthogonalLoop=1;jettySize=auto;html=1;exitX=1;exitY=0.5;exitDx=0;exitDy=0;entryX=0.5;entryY=0;entryDx=0;entryDy=0;" parent="1" source="J4KCyQgy4m4bBlxzk7Bu-46" target="J4KCyQgy4m4bBlxzk7Bu-51" edge="1">
          <mxGeometry relative="1" as="geometry">
            <Array as="points">
              <mxPoint x="514" y="2579" />
            </Array>
          </mxGeometry>
        </mxCell>
        <mxCell id="J4KCyQgy4m4bBlxzk7Bu-46" value="" style="rhombus;whiteSpace=wrap;html=1;rounded=1;strokeWidth=1;perimeterSpacing=5;" parent="1" vertex="1">
          <mxGeometry x="353" y="2539" width="80" height="80" as="geometry" />
        </mxCell>
        <mxCell id="J4KCyQgy4m4bBlxzk7Bu-47" style="rounded=0;orthogonalLoop=1;jettySize=auto;html=1;exitX=0.5;exitY=1;exitDx=0;exitDy=0;entryX=0.5;entryY=0;entryDx=0;entryDy=0;" parent="1" source="J4KCyQgy4m4bBlxzk7Bu-49" target="J4KCyQgy4m4bBlxzk7Bu-62" edge="1">
          <mxGeometry relative="1" as="geometry">
            <mxPoint x="215" y="2759" as="targetPoint" />
          </mxGeometry>
        </mxCell>
        <mxCell id="J4KCyQgy4m4bBlxzk7Bu-48" style="rounded=0;orthogonalLoop=1;jettySize=auto;html=1;exitX=0;exitY=0.5;exitDx=0;exitDy=0;entryX=1.031;entryY=0.495;entryDx=0;entryDy=0;entryPerimeter=0;endArrow=none;endFill=0;dashed=1;dashPattern=8 8;" parent="1" source="J4KCyQgy4m4bBlxzk7Bu-49" target="J4KCyQgy4m4bBlxzk7Bu-63" edge="1">
          <mxGeometry relative="1" as="geometry" />
        </mxCell>
        <mxCell id="J4KCyQgy4m4bBlxzk7Bu-49" value="Use linear formula" style="rounded=1;whiteSpace=wrap;html=1;" parent="1" vertex="1">
          <mxGeometry x="212" y="2659" width="120" height="60" as="geometry" />
        </mxCell>
        <mxCell id="J4KCyQgy4m4bBlxzk7Bu-50" style="edgeStyle=orthogonalEdgeStyle;rounded=0;orthogonalLoop=1;jettySize=auto;html=1;exitX=1;exitY=0.5;exitDx=0;exitDy=0;endArrow=none;endFill=0;dashed=1;dashPattern=8 8;" parent="1" source="J4KCyQgy4m4bBlxzk7Bu-51" target="J4KCyQgy4m4bBlxzk7Bu-55" edge="1">
          <mxGeometry relative="1" as="geometry" />
        </mxCell>
        <mxCell id="J4KCyQgy4m4bBlxzk7Bu-51" value="Use quadradic or exponential formula" style="rounded=1;whiteSpace=wrap;html=1;" parent="1" vertex="1">
          <mxGeometry x="454" y="2659" width="120" height="60" as="geometry" />
        </mxCell>
        <mxCell id="J4KCyQgy4m4bBlxzk7Bu-52" style="rounded=0;orthogonalLoop=1;jettySize=auto;html=1;exitX=0.5;exitY=1;exitDx=0;exitDy=0;entryX=0.5;entryY=0;entryDx=0;entryDy=0;" parent="1" source="J4KCyQgy4m4bBlxzk7Bu-51" target="J4KCyQgy4m4bBlxzk7Bu-59" edge="1">
          <mxGeometry relative="1" as="geometry">
            <mxPoint x="495" y="2758.9999999999995" as="targetPoint" />
          </mxGeometry>
        </mxCell>
        <mxCell id="J4KCyQgy4m4bBlxzk7Bu-53" style="rounded=0;orthogonalLoop=1;jettySize=auto;html=1;exitX=0.5;exitY=1;exitDx=0;exitDy=0;entryX=0.25;entryY=0;entryDx=0;entryDy=0;edgeStyle=orthogonalEdgeStyle;" parent="1" source="J4KCyQgy4m4bBlxzk7Bu-54" target="J4KCyQgy4m4bBlxzk7Bu-59" edge="1">
          <mxGeometry relative="1" as="geometry">
            <mxPoint x="345" y="2888.9999999999995" as="targetPoint" />
            <Array as="points">
              <mxPoint x="419" y="2839" />
              <mxPoint x="484" y="2839" />
            </Array>
          </mxGeometry>
        </mxCell>
        <mxCell id="J4KCyQgy4m4bBlxzk7Bu-54" value="Scale value to whole number" style="rounded=1;whiteSpace=wrap;html=1;" parent="1" vertex="1">
          <mxGeometry x="353" y="2759" width="120" height="60" as="geometry" />
        </mxCell>
        <mxCell id="J4KCyQgy4m4bBlxzk7Bu-55" value="gives &lt;br&gt;whole value for fitness scores&lt;div&gt;(unless scaled down)&lt;/div&gt;" style="shape=note;whiteSpace=wrap;html=1;backgroundOutline=1;darkOpacity=0.05;" parent="1" vertex="1">
          <mxGeometry x="630" y="2639" width="100" height="100" as="geometry" />
        </mxCell>
        <mxCell id="J4KCyQgy4m4bBlxzk7Bu-56" style="edgeStyle=orthogonalEdgeStyle;rounded=0;orthogonalLoop=1;jettySize=auto;html=1;exitX=0.5;exitY=1;exitDx=0;exitDy=0;entryX=0;entryY=0.5;entryDx=0;entryDy=0;" parent="1" source="J4KCyQgy4m4bBlxzk7Bu-57" target="J4KCyQgy4m4bBlxzk7Bu-67" edge="1">
          <mxGeometry relative="1" as="geometry">
            <Array as="points">
              <mxPoint x="157" y="3069" />
            </Array>
          </mxGeometry>
        </mxCell>
        <mxCell id="J4KCyQgy4m4bBlxzk7Bu-57" value="Use weighed selection with current population to choose 2 parents" style="rounded=1;whiteSpace=wrap;html=1;" parent="1" vertex="1">
          <mxGeometry x="97" y="2859" width="120" height="60" as="geometry" />
        </mxCell>
        <mxCell id="J4KCyQgy4m4bBlxzk7Bu-58" style="edgeStyle=orthogonalEdgeStyle;rounded=0;orthogonalLoop=1;jettySize=auto;html=1;exitX=0.5;exitY=1;exitDx=0;exitDy=0;entryX=0.5;entryY=0;entryDx=0;entryDy=0;" parent="1" source="J4KCyQgy4m4bBlxzk7Bu-59" target="J4KCyQgy4m4bBlxzk7Bu-65" edge="1">
          <mxGeometry relative="1" as="geometry" />
        </mxCell>
        <mxCell id="J4KCyQgy4m4bBlxzk7Bu-59" value="add to mating pool this amount of copies" style="rounded=1;whiteSpace=wrap;html=1;" parent="1" vertex="1">
          <mxGeometry x="454" y="2859" width="120" height="60" as="geometry" />
        </mxCell>
        <mxCell id="J4KCyQgy4m4bBlxzk7Bu-60" style="edgeStyle=orthogonalEdgeStyle;rounded=0;orthogonalLoop=1;jettySize=auto;html=1;exitX=0;exitY=0.5;exitDx=0;exitDy=0;entryX=0.5;entryY=0;entryDx=0;entryDy=0;" parent="1" source="J4KCyQgy4m4bBlxzk7Bu-62" target="J4KCyQgy4m4bBlxzk7Bu-57" edge="1">
          <mxGeometry relative="1" as="geometry">
            <Array as="points">
              <mxPoint x="157" y="2789" />
            </Array>
          </mxGeometry>
        </mxCell>
        <mxCell id="J4KCyQgy4m4bBlxzk7Bu-61" style="edgeStyle=orthogonalEdgeStyle;rounded=0;orthogonalLoop=1;jettySize=auto;html=1;exitX=1;exitY=0.5;exitDx=0;exitDy=0;entryX=0;entryY=0.5;entryDx=0;entryDy=0;" parent="1" source="J4KCyQgy4m4bBlxzk7Bu-62" target="J4KCyQgy4m4bBlxzk7Bu-54" edge="1">
          <mxGeometry relative="1" as="geometry" />
        </mxCell>
        <mxCell id="J4KCyQgy4m4bBlxzk7Bu-62" value="" style="rhombus;whiteSpace=wrap;html=1;rounded=1;strokeWidth=1;perimeterSpacing=5;" parent="1" vertex="1">
          <mxGeometry x="232" y="2749" width="80" height="80" as="geometry" />
        </mxCell>
        <mxCell id="J4KCyQgy4m4bBlxzk7Bu-63" value="Gives decimal values for fitness scores" style="shape=note;whiteSpace=wrap;html=1;backgroundOutline=1;darkOpacity=0.05;" parent="1" vertex="1">
          <mxGeometry x="60" y="2639" width="80" height="100" as="geometry" />
        </mxCell>
        <mxCell id="J4KCyQgy4m4bBlxzk7Bu-64" style="edgeStyle=orthogonalEdgeStyle;rounded=0;orthogonalLoop=1;jettySize=auto;html=1;exitX=0.5;exitY=1;exitDx=0;exitDy=0;entryX=1;entryY=0.5;entryDx=0;entryDy=0;" parent="1" source="J4KCyQgy4m4bBlxzk7Bu-65" target="J4KCyQgy4m4bBlxzk7Bu-67" edge="1">
          <mxGeometry relative="1" as="geometry">
            <Array as="points">
              <mxPoint x="514" y="3069" />
            </Array>
          </mxGeometry>
        </mxCell>
        <mxCell id="J4KCyQgy4m4bBlxzk7Bu-65" value="pick 2 random parents" style="rounded=1;whiteSpace=wrap;html=1;" parent="1" vertex="1">
          <mxGeometry x="454" y="2959" width="120" height="60" as="geometry" />
        </mxCell>
        <mxCell id="J4KCyQgy4m4bBlxzk7Bu-66" style="edgeStyle=orthogonalEdgeStyle;rounded=0;orthogonalLoop=1;jettySize=auto;html=1;exitX=0.5;exitY=1;exitDx=0;exitDy=0;entryX=0.5;entryY=0;entryDx=0;entryDy=0;" parent="1" source="J4KCyQgy4m4bBlxzk7Bu-67" target="J4KCyQgy4m4bBlxzk7Bu-73" edge="1">
          <mxGeometry relative="1" as="geometry" />
        </mxCell>
        <mxCell id="J4KCyQgy4m4bBlxzk7Bu-67" value="" style="rhombus;whiteSpace=wrap;html=1;rounded=1;strokeWidth=1;perimeterSpacing=5;" parent="1" vertex="1">
          <mxGeometry x="349" y="3029" width="80" height="80" as="geometry" />
        </mxCell>
        <mxCell id="J4KCyQgy4m4bBlxzk7Bu-68" style="edgeStyle=orthogonalEdgeStyle;rounded=0;orthogonalLoop=1;jettySize=auto;html=1;exitX=0;exitY=0;exitDx=80;exitDy=65;exitPerimeter=0;entryX=0;entryY=0;entryDx=0;entryDy=0;endArrow=none;endFill=0;dashed=1;dashPattern=8 8;" parent="1" source="J4KCyQgy4m4bBlxzk7Bu-69" target="J4KCyQgy4m4bBlxzk7Bu-46" edge="1">
          <mxGeometry relative="1" as="geometry">
            <Array as="points">
              <mxPoint x="119" y="2557" />
              <mxPoint x="371" y="2557" />
            </Array>
          </mxGeometry>
        </mxCell>
        <mxCell id="J4KCyQgy4m4bBlxzk7Bu-69" value="Whichever fitness strategy path is chosen, it remains the same for the whole simulation" style="shape=note;whiteSpace=wrap;html=1;backgroundOutline=1;darkOpacity=0.05;" parent="1" vertex="1">
          <mxGeometry x="39" y="2489" width="142" height="100" as="geometry" />
        </mxCell>
        <mxCell id="J4KCyQgy4m4bBlxzk7Bu-70" value="(invariant)&lt;br&gt;2 parents have been chosen" style="shape=note;whiteSpace=wrap;html=1;backgroundOutline=1;darkOpacity=0.05;" parent="1" vertex="1">
          <mxGeometry x="605" y="3029" width="80" height="100" as="geometry" />
        </mxCell>
        <mxCell id="J4KCyQgy4m4bBlxzk7Bu-71" style="edgeStyle=orthogonalEdgeStyle;rounded=0;orthogonalLoop=1;jettySize=auto;html=1;exitX=1;exitY=1;exitDx=0;exitDy=0;entryX=-0.021;entryY=0.62;entryDx=0;entryDy=0;entryPerimeter=0;endArrow=none;endFill=0;dashed=1;dashPattern=8 8;" parent="1" source="J4KCyQgy4m4bBlxzk7Bu-67" target="J4KCyQgy4m4bBlxzk7Bu-70" edge="1">
          <mxGeometry relative="1" as="geometry" />
        </mxCell>
        <mxCell id="J4KCyQgy4m4bBlxzk7Bu-72" style="edgeStyle=orthogonalEdgeStyle;rounded=0;orthogonalLoop=1;jettySize=auto;html=1;exitX=0.5;exitY=1;exitDx=0;exitDy=0;entryX=0.5;entryY=0;entryDx=0;entryDy=0;" parent="1" source="J4KCyQgy4m4bBlxzk7Bu-73" target="J4KCyQgy4m4bBlxzk7Bu-75" edge="1">
          <mxGeometry relative="1" as="geometry" />
        </mxCell>
        <mxCell id="J4KCyQgy4m4bBlxzk7Bu-73" value="Make a child. Use Crossover algorithm." style="rounded=1;whiteSpace=wrap;html=1;" parent="1" vertex="1">
          <mxGeometry x="329" y="3149" width="120" height="60" as="geometry" />
        </mxCell>
        <mxCell id="J4KCyQgy4m4bBlxzk7Bu-74" style="edgeStyle=orthogonalEdgeStyle;rounded=0;orthogonalLoop=1;jettySize=auto;html=1;exitX=0.5;exitY=1;exitDx=0;exitDy=0;entryX=0.5;entryY=0;entryDx=0;entryDy=0;" parent="1" source="J4KCyQgy4m4bBlxzk7Bu-75" target="J4KCyQgy4m4bBlxzk7Bu-77" edge="1">
          <mxGeometry relative="1" as="geometry" />
        </mxCell>
        <mxCell id="J4KCyQgy4m4bBlxzk7Bu-75" value="Mutate the child&#39;s genes (if opportunity occurs)" style="rounded=1;whiteSpace=wrap;html=1;" parent="1" vertex="1">
          <mxGeometry x="329" y="3249" width="120" height="60" as="geometry" />
        </mxCell>
        <mxCell id="J4KCyQgy4m4bBlxzk7Bu-76" style="edgeStyle=orthogonalEdgeStyle;rounded=0;orthogonalLoop=1;jettySize=auto;html=1;exitX=0.5;exitY=1;exitDx=0;exitDy=0;entryX=0.5;entryY=0;entryDx=0;entryDy=0;" parent="1" source="J4KCyQgy4m4bBlxzk7Bu-77" target="J4KCyQgy4m4bBlxzk7Bu-89" edge="1">
          <mxGeometry relative="1" as="geometry" />
        </mxCell>
        <mxCell id="J4KCyQgy4m4bBlxzk7Bu-77" value="Build a new population pool and replace old one&lt;br&gt;OR&lt;br&gt;replace the population pool in the same container" style="rounded=1;whiteSpace=wrap;html=1;" parent="1" vertex="1">
          <mxGeometry x="314" y="3349" width="150" height="80" as="geometry" />
        </mxCell>
        <mxCell id="J4KCyQgy4m4bBlxzk7Bu-78" style="edgeStyle=orthogonalEdgeStyle;rounded=0;orthogonalLoop=1;jettySize=auto;html=1;exitX=0;exitY=0.5;exitDx=0;exitDy=0;exitPerimeter=0;entryX=0;entryY=0.5;entryDx=0;entryDy=0;dashed=1;dashPattern=8 8;endArrow=none;endFill=0;" parent="1" source="J4KCyQgy4m4bBlxzk7Bu-79" target="J4KCyQgy4m4bBlxzk7Bu-13" edge="1">
          <mxGeometry relative="1" as="geometry">
            <Array as="points">
              <mxPoint x="414" y="2069" />
              <mxPoint x="414" y="1879" />
              <mxPoint x="464" y="1879" />
              <mxPoint x="464" y="1829" />
            </Array>
          </mxGeometry>
        </mxCell>
        <mxCell id="J4KCyQgy4m4bBlxzk7Bu-79" value="Many strategies available." style="shape=note;whiteSpace=wrap;html=1;backgroundOutline=1;darkOpacity=0.05;" parent="1" vertex="1">
          <mxGeometry x="434" y="2019" width="80" height="100" as="geometry" />
        </mxCell>
        <mxCell id="J4KCyQgy4m4bBlxzk7Bu-80" style="edgeStyle=orthogonalEdgeStyle;rounded=0;orthogonalLoop=1;jettySize=auto;html=1;exitX=0;exitY=0.5;exitDx=0;exitDy=0;exitPerimeter=0;entryX=0;entryY=0.5;entryDx=0;entryDy=0;dashed=1;dashPattern=8 8;endArrow=none;endFill=0;" parent="1" source="J4KCyQgy4m4bBlxzk7Bu-81" target="J4KCyQgy4m4bBlxzk7Bu-16" edge="1">
          <mxGeometry relative="1" as="geometry">
            <Array as="points">
              <mxPoint x="574" y="2069" />
              <mxPoint x="574" y="1879" />
              <mxPoint x="634" y="1879" />
              <mxPoint x="634" y="1829" />
            </Array>
          </mxGeometry>
        </mxCell>
        <mxCell id="J4KCyQgy4m4bBlxzk7Bu-81" value="Set&lt;br&gt;appropriate new random values" style="shape=note;whiteSpace=wrap;html=1;backgroundOutline=1;darkOpacity=0.05;" parent="1" vertex="1">
          <mxGeometry x="594" y="2019" width="82" height="100" as="geometry" />
        </mxCell>
        <mxCell id="J4KCyQgy4m4bBlxzk7Bu-82" value="" style="ellipse;html=1;shape=endState;fillColor=#000000;strokeColor=#FF0000;" parent="1" vertex="1">
          <mxGeometry x="369" y="3619" width="41" height="40" as="geometry" />
        </mxCell>
        <mxCell id="J4KCyQgy4m4bBlxzk7Bu-83" value="End the simulation" style="text;html=1;align=center;verticalAlign=middle;resizable=0;points=[];autosize=1;strokeColor=none;fillColor=none;" parent="1" vertex="1">
          <mxGeometry x="325" y="3664" width="120" height="30" as="geometry" />
        </mxCell>
        <mxCell id="J4KCyQgy4m4bBlxzk7Bu-84" style="edgeStyle=orthogonalEdgeStyle;rounded=0;orthogonalLoop=1;jettySize=auto;html=1;exitX=0;exitY=0.5;exitDx=0;exitDy=0;entryX=1;entryY=0.5;entryDx=0;entryDy=0;" parent="1" source="J4KCyQgy4m4bBlxzk7Bu-85" target="J4KCyQgy4m4bBlxzk7Bu-18" edge="1">
          <mxGeometry relative="1" as="geometry" />
        </mxCell>
        <mxCell id="J4KCyQgy4m4bBlxzk7Bu-85" value="" style="ellipse;html=1;shape=endState;fillColor=#000000;strokeColor=#000000;" parent="1" vertex="1">
          <mxGeometry x="615" y="2349" width="40" height="40" as="geometry" />
        </mxCell>
        <mxCell id="J4KCyQgy4m4bBlxzk7Bu-86" value="Repeat the simulation &lt;br&gt;until you reach a satisfactory result" style="text;html=1;align=center;verticalAlign=middle;resizable=0;points=[];autosize=1;strokeColor=none;fillColor=none;" parent="1" vertex="1">
          <mxGeometry x="525" y="2389" width="210" height="40" as="geometry" />
        </mxCell>
        <mxCell id="J4KCyQgy4m4bBlxzk7Bu-87" style="edgeStyle=orthogonalEdgeStyle;rounded=0;orthogonalLoop=1;jettySize=auto;html=1;exitX=1;exitY=0.5;exitDx=0;exitDy=0;entryX=0;entryY=0.5;entryDx=0;entryDy=0;" parent="1" source="J4KCyQgy4m4bBlxzk7Bu-89" target="J4KCyQgy4m4bBlxzk7Bu-90" edge="1">
          <mxGeometry relative="1" as="geometry" />
        </mxCell>
        <mxCell id="J4KCyQgy4m4bBlxzk7Bu-88" style="edgeStyle=orthogonalEdgeStyle;rounded=0;orthogonalLoop=1;jettySize=auto;html=1;exitX=0.5;exitY=1;exitDx=0;exitDy=0;entryX=0.5;entryY=0;entryDx=0;entryDy=0;" parent="1" source="J4KCyQgy4m4bBlxzk7Bu-89" target="J4KCyQgy4m4bBlxzk7Bu-82" edge="1">
          <mxGeometry relative="1" as="geometry" />
        </mxCell>
        <mxCell id="J4KCyQgy4m4bBlxzk7Bu-89" value="" style="rhombus;whiteSpace=wrap;html=1;rounded=1;strokeWidth=1;perimeterSpacing=5;" parent="1" vertex="1">
          <mxGeometry x="349" y="3479" width="80" height="80" as="geometry" />
        </mxCell>
        <mxCell id="J4KCyQgy4m4bBlxzk7Bu-90" value="" style="ellipse;html=1;shape=endState;fillColor=#000000;strokeColor=#000000;" parent="1" vertex="1">
          <mxGeometry x="490" y="3499" width="41" height="40" as="geometry" />
        </mxCell>
        <mxCell id="J4KCyQgy4m4bBlxzk7Bu-91" value="Repeat the simulation &lt;br&gt;to refine the result" style="text;html=1;align=center;verticalAlign=middle;resizable=0;points=[];autosize=1;strokeColor=none;fillColor=none;" parent="1" vertex="1">
          <mxGeometry x="440" y="3539" width="140" height="40" as="geometry" />
        </mxCell>
        <mxCell id="J4KCyQgy4m4bBlxzk7Bu-92" value="Process of creation of GA&lt;div&gt;(Setup)&lt;/div&gt;" style="text;html=1;align=center;verticalAlign=middle;resizable=0;points=[];autosize=1;strokeColor=default;fillColor=none;strokeWidth=2;" parent="1" vertex="1">
          <mxGeometry x="165" y="1274" width="160" height="40" as="geometry" />
        </mxCell>
        <mxCell id="J4KCyQgy4m4bBlxzk7Bu-93" value="object life cycle&lt;div&gt;(Draw)&lt;/div&gt;" style="text;html=1;align=center;verticalAlign=middle;resizable=0;points=[];autosize=1;strokeColor=default;fillColor=none;strokeWidth=2;" parent="1" vertex="1">
          <mxGeometry x="60" y="2354" width="100" height="40" as="geometry" />
        </mxCell>
        <mxCell id="J4KCyQgy4m4bBlxzk7Bu-94" style="edgeStyle=orthogonalEdgeStyle;rounded=0;orthogonalLoop=1;jettySize=auto;html=1;exitX=0.5;exitY=1;exitDx=0;exitDy=0;entryX=0.5;entryY=0;entryDx=0;entryDy=0;" parent="1" source="J4KCyQgy4m4bBlxzk7Bu-95" target="J4KCyQgy4m4bBlxzk7Bu-18" edge="1">
          <mxGeometry relative="1" as="geometry" />
        </mxCell>
        <mxCell id="J4KCyQgy4m4bBlxzk7Bu-95" value="Generate an initial population with random genes" style="rounded=1;whiteSpace=wrap;html=1;" parent="1" vertex="1">
          <mxGeometry x="333" y="2219" width="120" height="60" as="geometry" />
        </mxCell>
      </root>
    </mxGraphModel>
  </diagram>
</mxfile>
